<svg width="287" height="306" viewBox="0 0 287 306" fill="none" xmlns="http://www.w3.org/2000/svg">
<circle cx="136" cy="125" r="125" fill="#CEFF39"/>
<g clip-path="url(#clip0_1251_1401)">
<path d="M182.098 90.1513C182.029 90.0914 181.963 90.0305 181.893 89.9738L181.847 89.9375L181.062 89.2872C180.919 89.1691 180.77 89.0558 180.618 88.9502C179.955 88.4848 178.734 87.6299 177.066 87.0024C175.236 86.2818 173.235 85.9867 171.395 86.1749C170.304 86.266 169.443 86.502 168.992 86.6423C168.805 86.6933 168.616 86.7545 168.427 86.8245L168.425 86.8254C168.282 86.8782 168.143 86.9354 168.006 86.9949C167.942 87.0251 167.834 87.0709 167.69 87.136C167.365 87.2793 166.618 87.6119 165.776 88.2125C164.269 89.2362 162.937 90.7169 161.997 92.4125C161.104 93.9638 160.708 95.405 160.493 96.1865C160.446 96.3572 160.407 96.5343 160.37 96.7097C160.251 97.32 160.173 97.7296 160.173 97.7296L160.164 97.7827C160.146 97.8688 160.132 97.957 160.118 98.0447L156.309 123.817C147.868 125.404 138.542 128.011 128.971 131.467C130.97 128.769 132.858 126.595 134.233 125.067C134.787 124.448 135.298 123.891 135.754 123.391C136.457 122.624 137.062 121.964 137.555 121.383C137.603 121.325 137.645 121.273 137.685 121.226C137.843 121.038 137.991 120.853 138.116 120.689C138.209 120.57 138.282 120.469 138.352 120.369C138.455 120.231 138.598 120.03 138.753 119.784C138.888 119.569 138.989 119.384 139.064 119.235C139.201 118.987 139.375 118.642 139.534 118.209C139.587 118.069 139.633 117.928 139.676 117.785C140.241 115.909 140.008 113.875 139.03 112.164C138.045 110.443 136.396 109.21 134.486 108.767L133.852 108.621C133.721 108.589 133.59 108.564 133.459 108.539C132.316 108.304 129.65 107.819 125.926 107.554L125.807 107.545C125.699 107.538 125.592 107.53 125.479 107.522C125.375 107.516 125.259 107.508 125.143 107.502L124.998 107.493L124.948 107.491C124.706 107.478 124.461 107.461 124.211 107.451L123.881 107.438L123.739 107.431C123.448 107.42 123.16 107.41 122.863 107.398L122.506 107.392L122.38 107.388C122.077 107.382 121.767 107.376 121.449 107.373L120.993 107.371L120.95 107.372C120.633 107.369 120.3 107.371 119.961 107.375C119.797 107.376 119.63 107.379 119.463 107.383C119.122 107.387 118.771 107.396 118.416 107.407C118.249 107.412 118.083 107.418 117.915 107.424C117.548 107.439 117.175 107.456 116.794 107.479L116.717 107.481L116.305 107.503C115.911 107.529 115.504 107.558 115.092 107.589L114.971 107.599L114.658 107.623C114.2 107.663 113.736 107.705 113.267 107.755L113.195 107.761L112.951 107.786C111.118 107.983 109.281 108.256 107.491 108.591C107.409 108.607 107.32 108.625 107.233 108.642L107.172 108.656C106.669 108.754 106.155 108.855 105.637 108.968C105.508 108.997 105.38 109.027 105.255 109.056L105.105 109.091C104.66 109.19 104.206 109.296 103.749 109.409C103.592 109.447 103.438 109.486 103.283 109.529L103.12 109.568C102.686 109.681 102.261 109.794 101.83 109.916C101.614 109.975 101.399 110.037 101.185 110.101L101.14 110.112C100.719 110.236 100.301 110.363 99.883 110.495C99.6384 110.57 99.3949 110.649 99.1511 110.727C98.7422 110.86 98.3276 111.002 97.911 111.147L97.868 111.163C97.6314 111.245 97.3982 111.328 97.1621 111.413L96.9147 111.504C96.5803 111.628 96.2469 111.754 95.9124 111.884L95.7727 111.939C95.5673 112.018 95.3639 112.096 95.1624 112.179C95.0257 112.233 94.89 112.289 94.7513 112.346C94.5209 112.192 94.2721 112.045 94.0122 111.909C92.0026 110.859 89.6906 110.726 87.5003 111.534L87.4978 111.535C86.9438 111.74 86.3883 112.01 85.8488 112.34C85.5744 112.5 85.3147 112.676 85.0675 112.87C84.9567 112.947 84.8501 113.027 84.7447 113.111L84.6599 113.18C81.6405 115.651 81.3108 118.61 81.3833 120.156C81.4099 120.73 81.4934 121.268 81.6174 121.768C67.7043 137.742 65.1054 156.499 64.9196 157.98C64.5088 160.586 65.5747 163.233 67.6918 164.823C69.6091 166.264 72.0877 166.612 74.2695 165.805C74.4223 165.748 74.5762 165.686 74.7307 165.617C74.9524 165.526 75.6679 165.249 77.1456 164.703C77.2321 164.671 77.3191 164.639 77.4081 164.606C76.0922 167.705 75.9679 170.709 77.0471 173.595C85.3174 195.643 95.0367 210.724 106.765 219.707C121.622 231.088 139.843 232.906 160.921 225.107L161.268 224.979C169.009 222.08 175.688 218.42 181.118 214.099L181.162 214.062L181.214 214.022C192.97 204.621 199.298 191.836 200.031 176.017C200.612 163.435 197.694 148.725 191.107 131.048L191.067 130.939C189.946 127.941 187.069 124.108 179.677 122.696C177.938 122.363 175.988 122.167 173.838 122.11L175.978 107.64L190.927 121.12C192.93 122.927 195.664 123.369 197.999 122.505C199.03 122.124 199.982 121.491 200.761 120.607L200.944 120.398L201.204 120.104L201.445 119.83L201.624 119.625L201.82 119.402L202.013 119.18L202.21 118.957L202.371 118.773L202.611 118.499L202.809 118.272C204.017 116.902 204.646 115.097 204.552 113.25C204.456 111.345 203.608 109.548 202.197 108.273L182.098 90.1513Z" fill="white"/>
<path d="M83.5703 171.153C97.2652 207.658 118.03 233.603 158.788 218.346C199.54 203.09 198.17 169.88 184.535 133.356L83.5703 171.153Z" fill="#B04732"/>
<path d="M141.552 180.892C148.805 206.011 150.659 217.349 151.109 220.799C152.703 220.38 154.334 219.888 155.999 219.331C153.576 205.733 141.552 180.892 141.552 180.892Z" fill="#A13F32"/>
<path d="M174.068 194.087C175.365 203.331 175.453 207.654 175.271 209.671C176.327 208.894 177.325 208.097 178.275 207.276C177.09 200.067 174.068 194.087 174.068 194.087Z" fill="#A13F32"/>
<path d="M185.027 164.27C189.186 178.139 189.415 188.323 189.26 192.624C190.227 190.439 191 188.176 191.589 185.841C190.079 175.988 185.027 164.27 185.027 164.27Z" fill="#A13F32"/>
<path d="M184.534 133.356C187.279 140.689 166.903 155.097 139.023 165.536C111.143 175.972 86.3147 178.486 83.5698 171.153C80.8235 163.817 101.199 149.409 129.081 138.973C156.962 128.534 181.788 126.02 184.534 133.356Z" fill="#E9EDED"/>
<path d="M137.234 162.724C114.916 170.981 95.2546 173.159 93.1612 167.563C91.0479 161.913 107.638 150.478 130.224 142.021C130.438 141.942 130.655 141.862 130.87 141.782C153.187 133.525 172.851 131.346 174.945 136.945C177.059 142.595 160.465 154.028 137.882 162.484C137.665 162.564 137.448 162.645 137.234 162.724Z" fill="#CACECF"/>
<path d="M177.485 95.4057L177.472 95.3931C177.472 95.3931 177.159 95.1346 176.688 94.7484C176.182 94.3903 175.494 93.9129 174.646 93.6043C173.826 93.2707 172.856 93.1256 172.108 93.2134C171.364 93.2645 170.882 93.4904 170.882 93.4665C170.882 93.4665 170.766 93.515 170.566 93.6073C170.361 93.6977 170.072 93.8252 169.775 94.0502C169.143 94.4579 168.488 95.1896 168.068 95.9674C167.61 96.7447 167.383 97.5509 167.219 98.1485C167.103 98.7459 167.026 99.1431 167.026 99.1431L167.023 99.1649C167.023 99.1649 165.303 110.793 161.867 134.033C161.579 135.992 161.278 138.023 160.962 140.149C160.384 144.06 159.762 148.269 159.102 152.74C160.303 152.059 161.453 151.38 162.543 150.703C163.113 146.849 163.652 143.202 164.158 139.786C164.461 137.728 164.753 135.756 165.033 133.856C168.4 111.074 170.087 99.6617 170.087 99.6617L170.092 99.6425C170.092 99.6425 170.149 99.356 170.232 98.9239C170.347 98.5216 170.501 97.9723 170.759 97.5558C171.237 96.6209 171.964 96.4547 171.945 96.4266C171.949 96.4603 172.617 96.1249 173.581 96.5437C174.046 96.7023 174.514 97.0246 174.861 97.2646C175.199 97.5438 175.424 97.7288 175.424 97.7288L175.44 97.7405C175.44 97.7405 182.137 103.783 195.537 115.866C195.655 115.731 195.713 115.666 195.713 115.666L196.202 115.107L196.392 114.892L196.771 114.457L196.963 114.239L197.141 114.037L197.359 113.788L197.58 113.538L197.588 113.529C184.186 101.447 177.485 95.4057 177.485 95.4057Z" fill="#EF5656"/>
<path d="M117.586 157.235L112.383 149.926L92.1468 121.505L90.7374 122.526L110.833 150.753L115.821 157.758L122.665 167.374C123.257 167.217 123.854 167.052 124.457 166.885L117.586 157.235Z" fill="#EEB66D"/>
<path fill-rule="evenodd" clip-rule="evenodd" d="M92.8885 122.756L92.3403 122.607C92.2769 122.593 92.1755 122.554 92.0561 122.506C92.0557 122.645 92.0642 122.739 92.0588 122.818L92.0172 123.388C90.78 121.651 86.7149 120.631 89.0819 118.694C89.1424 118.644 89.2027 118.619 89.2709 118.6C89.3017 118.542 89.3528 118.484 89.4238 118.449C91.9999 116.817 91.6541 121.018 92.8885 122.756Z" fill="#8ED14C"/>
<path fill-rule="evenodd" clip-rule="evenodd" d="M71.9467 158.893L71.8409 158.968C71.8409 158.968 74.35 137.984 90.6405 122.54C90.8712 122.261 91.1484 122.007 91.4754 121.792C91.7805 121.558 92.1108 121.377 92.4425 121.24C110.476 111.627 128.938 114.809 132.069 115.456L132.36 115.528L132.991 115.681C132.518 116.959 126.787 121.893 121.15 130.337C118.236 130.876 94.0579 147.834 89.2352 153.196C80.2116 153.96 78.3526 153.586 72.0202 159.061C71.9767 159.1 71.9612 158.956 71.9467 158.893Z" fill="#B0DB2D"/>
<path fill-rule="evenodd" clip-rule="evenodd" d="M91.2921 121.954C91.4158 121.835 91.3614 121.876 91.5179 121.774C91.6041 121.7 91.7028 121.637 91.7974 121.564C92.01 121.432 92.2258 121.326 92.443 121.24C112.224 110.698 132.525 115.55 132.525 115.55L132.365 115.509L132.999 115.655C132.614 116.874 126.841 121.82 121.161 130.328C110.054 124.011 97.1089 119.776 91.2921 121.954Z" fill="#8ED14C"/>
<path fill-rule="evenodd" clip-rule="evenodd" d="M71.8519 158.958C71.8948 158.603 74.4972 137.856 90.6503 122.549C90.709 122.465 90.7567 122.406 90.8116 122.351C90.897 122.26 90.9829 122.178 91.0788 122.092C91.1327 122.058 91.1895 122.007 91.2666 121.958L91.2926 121.972C87.109 126.622 86.8298 140.286 89.2719 153.238C87.7713 153.197 72.3336 158.88 71.8124 159.164L71.8519 158.958Z" fill="#8ED14C"/>
<path d="M99.243 140.787L99.2418 140.72L99.243 140.787Z" fill="#6EB939"/>
</g>
<path d="M220.691 71.4989C223.031 63.5799 214.33 58.9053 208.675 64.506C210.008 56.6594 201.182 52.2249 196.046 58.6908C191.386 64.557 199.627 81.9153 199.627 81.9153C199.627 81.9153 218.568 78.6836 220.691 71.4989Z" fill="#FF5D5D"/>
<path d="M142.713 35.1282C134.723 22.1142 117.532 28.2896 118.233 42.9925C109.098 31.4513 92.082 38.0964 94.6149 53.1557C96.9126 66.8188 130.968 76.9692 130.968 76.9692C130.968 76.9692 149.962 46.9356 142.713 35.1282Z" fill="#FF5E5E"/>
<path d="M68.3461 80.2209C60.9079 75.8689 53.9944 83.5149 58.254 90.6463C50.6373 87.332 43.9358 95.1653 49.202 101.987C53.9798 108.176 73.6295 104.17 73.6295 104.17C73.6295 104.17 75.0946 84.1696 68.3461 80.2209Z" fill="#FF5D5D"/>
<defs>
<clipPath id="clip0_1251_1401">
<rect width="212.088" height="215.691" fill="white" transform="translate(6.82971 96.5557) rotate(-20.3033)"/>
</clipPath>
</defs>
</svg>
