<svg width="215" height="218" viewBox="0 0 215 218" fill="none" xmlns="http://www.w3.org/2000/svg">
<path d="M199.074 102.943C203.613 93.1405 193.244 85.4306 184.857 91.5998C188.08 81.6993 177.503 74.2763 169.623 81.6643C162.473 88.3671 169.826 112.404 169.826 112.404C169.826 112.404 194.956 111.836 199.074 102.943Z" fill="#FF5E5E"/>
<g clip-path="url(#clip0_538_668)">
<path d="M146.845 53.5905C146.794 53.5333 146.745 53.4757 146.693 53.4212L146.659 53.3862L146.071 52.7624C145.964 52.6492 145.851 52.5393 145.735 52.4354C145.231 51.9786 144.301 51.1392 142.975 50.4432C141.523 49.6526 139.884 49.1994 138.331 49.1659C137.41 49.1288 136.668 49.2365 136.278 49.3069C136.117 49.3301 135.953 49.3616 135.788 49.4004L135.785 49.4009C135.661 49.4301 135.539 49.4634 135.419 49.4989C135.362 49.5174 135.267 49.5444 135.14 49.5838C134.855 49.6698 134.197 49.8698 133.433 50.2835C132.07 50.9813 130.805 52.0784 129.846 53.3954C128.94 54.5967 128.461 55.7578 128.201 56.3873C128.144 56.5248 128.093 56.6684 128.044 56.811C127.882 57.3077 127.774 57.6412 127.774 57.6412L127.761 57.6845C127.738 57.7545 127.717 57.8266 127.696 57.8983L121.851 78.9997C114.646 79.449 106.598 80.6578 98.2573 82.5491C100.204 80.5061 102.003 78.8887 103.309 77.756C103.835 77.2978 104.319 76.8854 104.751 76.5162C105.416 75.9492 105.99 75.4611 106.461 75.0278C106.507 74.9839 106.548 74.9455 106.586 74.9104C106.736 74.7699 106.88 74.6311 107.001 74.5069C107.09 74.4168 107.162 74.3404 107.231 74.2644C107.33 74.1595 107.471 74.0072 107.626 73.8178C107.761 73.6525 107.864 73.509 107.942 73.3926C108.082 73.1996 108.263 72.9302 108.44 72.5854C108.498 72.4738 108.552 72.3608 108.602 72.2466C109.268 70.7404 109.284 69.0199 108.645 67.4913C108.002 65.9542 106.755 64.7546 105.207 64.1873L104.693 63.9998C104.588 63.9602 104.481 63.9257 104.374 63.891C103.445 63.5767 101.272 62.8959 98.1933 62.2893L98.0947 62.2699C98.0059 62.2524 97.9174 62.2348 97.8237 62.2166C97.7381 62.2007 97.6421 62.1826 97.5462 62.1648L97.426 62.1429L97.3842 62.1357C97.1834 62.0995 96.9815 62.0608 96.7736 62.0263L96.4998 61.9808L96.3824 61.9605C96.1409 61.9217 95.9012 61.8828 95.6548 61.8427L95.358 61.8002L95.2531 61.7841C95.0006 61.7478 94.7428 61.7109 94.4782 61.675L94.0979 61.6261L94.0621 61.6222C93.7977 61.5868 93.5199 61.5541 93.2372 61.5225C93.0999 61.5069 92.96 61.492 92.8206 61.4774C92.5362 61.4462 92.2425 61.4172 91.9449 61.3892C91.8054 61.3765 91.6661 61.3642 91.5249 61.352C91.218 61.3261 90.9045 61.3017 90.585 61.2816L90.5201 61.2751L90.1741 61.2513C89.843 61.2315 89.5004 61.2141 89.1538 61.1975L89.0517 61.1931L88.788 61.1807C88.4018 61.1663 88.0109 61.1536 87.6148 61.1463L87.5533 61.1442L87.3479 61.1399C85.7987 61.1147 84.2382 61.1519 82.7101 61.2459C82.6404 61.2504 82.5645 61.2564 82.4902 61.2616L82.4375 61.2669C82.0076 61.2964 81.5689 61.328 81.1248 61.368C81.0147 61.3792 80.9047 61.3908 80.797 61.4019L80.6684 61.4156C80.2874 61.4526 79.8975 61.494 79.5048 61.5409C79.3696 61.5561 79.2371 61.5725 79.1034 61.5921L78.9638 61.6084C78.5903 61.6578 78.2239 61.7079 77.8517 61.7646C77.6657 61.7918 77.4798 61.8208 77.2944 61.8525L77.2559 61.8568C76.8918 61.9164 76.5303 61.9795 76.1678 62.0458C75.956 62.0838 75.7447 62.124 75.5333 62.1637C75.1785 62.2329 74.818 62.3081 74.4555 62.3863L74.418 62.3951C74.2121 62.4387 74.0091 62.4841 73.8033 62.5301L73.5876 62.5808C73.2959 62.6494 73.0047 62.7202 72.7123 62.7936L72.5901 62.8247C72.4106 62.8693 72.2329 62.9134 72.0562 62.9621C71.9367 62.9925 71.8177 63.0252 71.6961 63.0585C71.5198 62.9068 71.3275 62.7583 71.1249 62.6174C69.5575 61.5338 67.6428 61.184 65.7324 61.6307L65.7302 61.6312C65.247 61.7448 64.7556 61.9128 64.2716 62.1317C64.0262 62.2368 63.7913 62.3569 63.5649 62.4934C63.4646 62.5459 63.3674 62.6019 63.2708 62.6606L63.193 62.7097C60.4188 64.4581 59.8374 66.892 59.7379 68.1884C59.7006 68.6698 59.7146 69.1273 59.7662 69.557C46.5082 81.4397 42.3986 96.8152 42.0903 98.0314C41.4778 100.163 42.0929 102.48 43.694 104.026C45.1439 105.426 47.1752 105.973 49.0784 105.526C49.2117 105.494 49.3466 105.458 49.4826 105.416C49.6769 105.364 50.3023 105.207 51.5913 104.904C51.6668 104.886 51.7427 104.869 51.8204 104.85C50.402 107.299 49.9872 109.792 50.5886 112.311C55.2038 131.556 61.7488 145.141 70.6004 153.847C81.8142 164.878 96.8232 168.28 115.21 163.958L115.513 163.887C122.269 162.27 128.219 159.91 133.195 156.867L133.236 156.841L133.284 156.814C144.062 150.189 150.664 140.181 152.913 127.063C154.7 116.63 153.789 104.059 150.126 88.6329L150.103 88.5382C149.479 85.9216 147.476 82.4263 141.456 80.4834C140.041 80.0257 138.435 79.6606 136.647 79.3904L139.93 67.5431L151.003 80.3337C152.487 82.0483 154.721 82.7004 156.758 82.2216C157.657 82.0103 158.517 81.5813 159.258 80.9246L159.433 80.7689L159.68 80.5508L159.909 80.3468L160.08 80.1944L160.266 80.0288L160.451 79.8634L160.637 79.6977L160.791 79.5613L161.02 79.3573L161.208 79.1889C162.357 78.1711 163.069 76.7313 163.181 75.1809C163.299 73.582 162.778 71.9949 161.733 70.7861L146.845 53.5905Z" fill="white"/>
<path d="M56.2824 110.949C63.9251 142.814 78.5581 166.603 114.131 158.098C149.7 149.592 151.996 121.752 144.405 89.8776L56.2824 110.949Z" fill="#B04732"/>
<path d="M103.633 125.075C107.082 146.776 107.454 156.425 107.472 159.349C108.846 159.164 110.257 158.923 111.703 158.631C111.09 147.038 103.633 125.075 103.633 125.075Z" fill="#A13F32"/>
<path d="M129.388 139.446C129.512 147.291 129.138 150.906 128.777 152.569C129.738 152.03 130.654 151.469 131.531 150.883C131.289 144.747 129.388 139.446 129.388 139.446Z" fill="#A13F32"/>
<path d="M141.615 115.713C143.648 127.71 142.785 136.228 142.21 139.8C143.242 138.077 144.122 136.27 144.855 134.383C144.616 126.009 141.615 115.713 141.615 115.713Z" fill="#A13F32"/>
<path d="M144.404 89.8777C145.935 96.2782 127.449 106.185 103.114 112.005C78.7806 117.823 57.8121 117.35 56.282 110.949C54.7509 104.546 73.2371 94.6387 97.5726 88.821C121.908 83.0007 142.874 83.4743 144.404 89.8777Z" fill="#E9EDED"/>
<path d="M101.912 109.475C82.4438 114.051 65.8196 113.832 64.653 108.948C63.4753 104.016 78.4963 96.1966 98.2095 91.482C98.3966 91.438 98.5859 91.3935 98.773 91.3495C118.242 86.7734 134.868 86.9917 136.035 91.878C137.213 96.8095 122.189 104.627 102.478 109.342C102.289 109.386 102.1 109.431 101.912 109.475Z" fill="#CACECF"/>
<path d="M142.455 57.4953L142.445 57.4834C142.445 57.4834 142.211 57.2354 141.858 56.8646C141.472 56.5134 140.948 56.0441 140.273 55.6989C139.624 55.3358 138.83 55.1143 138.197 55.1101C137.571 55.0757 137.145 55.2142 137.148 55.1942C137.148 55.1942 137.046 55.2228 136.87 55.279C136.69 55.3332 136.435 55.4095 136.164 55.5665C135.594 55.8411 134.973 56.3836 134.542 56.9888C134.079 57.5896 133.806 58.2386 133.608 58.72C133.449 59.2063 133.344 59.5297 133.344 59.5297L133.339 59.5475C133.339 59.5475 130.7 69.0677 125.429 88.0953C124.986 89.6992 124.525 91.3624 124.041 93.1024C123.154 96.3053 122.2 99.7514 121.186 103.412C122.258 102.968 123.288 102.521 124.267 102.069C125.141 98.914 125.969 95.9278 126.744 93.1309C127.21 91.4454 127.658 89.8309 128.088 88.2753C133.255 69.6233 135.844 60.2791 135.844 60.2791L135.849 60.2636C135.849 60.2636 135.926 60.0305 136.041 59.6787C136.178 59.3551 136.364 58.9128 136.622 58.5922C137.117 57.8619 137.741 57.7986 137.728 57.7732C137.728 57.8017 138.32 57.5911 139.081 58.0403C139.452 58.2206 139.808 58.5379 140.073 58.774C140.326 59.0418 140.495 59.2195 140.495 59.2195L140.507 59.2309C140.507 59.2309 145.467 64.9641 155.392 76.4293C155.505 76.329 155.559 76.2802 155.559 76.2802L156.025 75.8652L156.206 75.7057L156.567 75.3817L156.75 75.2194L156.919 75.0698L157.127 74.885L157.337 74.6993L157.345 74.6926C147.418 63.2279 142.455 57.4953 142.455 57.4953Z" fill="#EF5656"/>
<path d="M86.0938 102.862L82.5114 96.2276L68.5757 70.4283L67.2946 71.1334L81.1326 96.7568L84.5678 103.116L89.2807 111.844C89.7905 111.775 90.3059 111.699 90.8257 111.622L86.0938 102.862Z" fill="#EEB66D"/>
<path fill-rule="evenodd" clip-rule="evenodd" d="M69.0649 71.548L68.623 71.3677C68.5715 71.349 68.4911 71.3059 68.3964 71.2538C68.3817 71.3695 68.379 71.4492 68.3664 71.5142L68.2726 71.9852C67.4206 70.4086 64.1358 69.1368 66.3105 67.7661C66.3661 67.7312 66.4189 67.7164 66.4778 67.7073C66.5095 67.662 66.5582 67.6193 66.621 67.5974C68.9385 66.5033 68.2151 69.9714 69.0649 71.548Z" fill="#76B13C"/>
<path fill-rule="evenodd" clip-rule="evenodd" d="M47.8571 99.5203L47.7611 99.5717C47.7611 99.5717 52.0262 82.3302 67.2123 71.1356C67.4337 70.9264 67.6911 70.7437 67.9861 70.5981C68.2648 70.4345 68.5591 70.3175 68.8499 70.2374C84.886 64.0874 99.9547 68.6527 102.499 69.516L102.734 69.6066L103.245 69.7992C102.718 70.8162 97.4269 74.3383 91.8512 80.7976C89.3652 80.9448 67.4439 92.5859 62.8664 96.5583C55.2611 96.2612 53.7493 95.757 47.901 99.6676C47.8607 99.6961 47.8627 99.5739 47.8571 99.5203Z" fill="#B0DB2D"/>
<path fill-rule="evenodd" clip-rule="evenodd" d="M67.8163 70.7143C67.9319 70.6275 67.8823 70.6562 68.0234 70.587C68.1028 70.5347 68.1916 70.4926 68.2782 70.4409C68.4691 70.3535 68.6602 70.2868 68.8502 70.2374C86.4402 63.493 102.87 69.6416 102.87 69.6416L102.74 69.5911L103.254 69.7782C102.807 70.7551 97.4799 74.2828 91.8615 80.7905C83.2515 74.3723 72.8934 69.4996 67.8163 70.7143Z" fill="#76B13C"/>
<path fill-rule="evenodd" clip-rule="evenodd" d="M47.7712 99.5647C47.8437 99.2729 52.1622 82.2386 67.2195 71.1439C67.2772 71.0802 67.3231 71.0358 67.3745 70.9952C67.4552 70.9285 67.5353 70.8689 67.6242 70.8073C67.6728 70.784 67.7253 70.748 67.7947 70.7146L67.815 70.7293C63.8442 74.1745 62.1966 85.5421 62.8925 96.5976C61.6452 96.4082 48.1811 99.5493 47.717 99.7323L47.7712 99.5647Z" fill="#76B13C"/>
<path d="M72.498 87.2448L72.5039 87.1889L72.498 87.2448Z" fill="#6EB939"/>
</g>
<defs>
<clipPath id="clip0_538_668">
<rect width="178.25" height="181.278" fill="white" transform="translate(0 40.7861) rotate(-13.2272)"/>
</clipPath>
</defs>
</svg>
