<svg width="146" height="147" viewBox="0 0 146 147" fill="none" xmlns="http://www.w3.org/2000/svg">
<g clip-path="url(#clip0_528_610)">
<path d="M99.1449 36.1823C99.1104 36.1437 99.0773 36.1048 99.042 36.0681L99.0188 36.0444L98.6218 35.6233C98.5497 35.5468 98.4738 35.4726 98.3954 35.4025C98.0547 35.094 97.4269 34.5273 96.5314 34.0574C95.5511 33.5236 94.4451 33.2176 93.396 33.195C92.7748 33.1699 92.2735 33.2427 92.0102 33.2902C91.9013 33.3059 91.7906 33.3271 91.6791 33.3533L91.6777 33.3536C91.5936 33.3734 91.5115 33.3959 91.4301 33.4198C91.3918 33.4323 91.3279 33.4506 91.242 33.4771C91.0494 33.5352 90.6054 33.6703 90.0891 33.9496C89.169 34.4207 88.3153 35.1614 87.6679 36.0506C87.0561 36.8617 86.7326 37.6456 86.5568 38.0706C86.5183 38.1635 86.4838 38.2604 86.4511 38.3567C86.3413 38.692 86.2688 38.9172 86.2688 38.9172L86.26 38.9465C86.244 38.9937 86.23 39.0424 86.2159 39.0908L82.2693 53.3377C77.4051 53.641 71.9713 54.4572 66.34 55.7341C67.6541 54.3548 68.8691 53.2628 69.7505 52.498C70.106 52.1887 70.4323 51.9102 70.7243 51.6609C71.1735 51.2781 71.5607 50.9486 71.879 50.656C71.91 50.6263 71.9373 50.6004 71.9631 50.5768C72.0647 50.4819 72.1615 50.3882 72.2434 50.3043C72.3036 50.2435 72.3518 50.1919 72.3986 50.1406C72.4659 50.0698 72.5605 49.967 72.6654 49.8391C72.7564 49.7275 72.8258 49.6306 72.8786 49.552C72.9731 49.4217 73.0955 49.2398 73.2152 49.007C73.2544 48.9316 73.2906 48.8553 73.3246 48.7783C73.7741 47.7613 73.785 46.5997 73.3535 45.5677C72.9193 44.5298 72.0772 43.7199 71.0323 43.3369L70.6853 43.2103C70.614 43.1836 70.5418 43.1603 70.47 43.1369C69.8426 42.9246 68.3754 42.465 66.2968 42.0554L66.2302 42.0423C66.1702 42.0305 66.1105 42.0187 66.0473 42.0063C65.9894 41.9956 65.9246 41.9834 65.8598 41.9714L65.7787 41.9566L65.7505 41.9517C65.6149 41.9273 65.4786 41.9012 65.3383 41.8779L65.1534 41.8471L65.0741 41.8335C64.9111 41.8072 64.7493 41.781 64.5829 41.7539L64.3825 41.7252L64.3117 41.7144C64.1412 41.6899 63.9671 41.6649 63.7885 41.6407L63.5317 41.6077L63.5075 41.6051C63.329 41.5812 63.1414 41.5591 62.9506 41.5377C62.8579 41.5272 62.7634 41.5171 62.6693 41.5073C62.4773 41.4862 62.279 41.4667 62.078 41.4477C61.9839 41.4391 61.8898 41.4309 61.7945 41.4226C61.5873 41.4051 61.3756 41.3887 61.1599 41.3751L61.1161 41.3707L60.8825 41.3546C60.659 41.3413 60.4276 41.3295 60.1936 41.3183L60.1247 41.3153L59.9466 41.307C59.6859 41.2973 59.422 41.2886 59.1546 41.2837L59.113 41.2823L58.9743 41.2794C57.9284 41.2624 56.8748 41.2875 55.843 41.351C55.796 41.354 55.7447 41.3581 55.6946 41.3616L55.659 41.3651C55.3688 41.3851 55.0726 41.4064 54.7727 41.4334C54.6984 41.441 54.6242 41.4488 54.5514 41.4563L54.4646 41.4655C54.2073 41.4905 53.9441 41.5185 53.679 41.5501C53.5877 41.5604 53.4982 41.5715 53.4079 41.5847L53.3137 41.5957C53.0615 41.6291 52.8142 41.6629 52.5628 41.7012C52.4373 41.7195 52.3117 41.7391 52.1866 41.7605L52.1606 41.7635C51.9147 41.8037 51.6707 41.8463 51.4259 41.8911C51.2829 41.9167 51.1403 41.9438 50.9976 41.9706C50.758 42.0174 50.5146 42.0682 50.2698 42.1209L50.2445 42.1269C50.1056 42.1563 49.9684 42.187 49.8295 42.218L49.6839 42.2522C49.4869 42.2985 49.2903 42.3463 49.0929 42.3959L49.0104 42.4169C48.8892 42.447 48.7692 42.4768 48.6499 42.5097C48.5692 42.5302 48.4889 42.5523 48.4068 42.5748C48.2878 42.4723 48.1579 42.3721 48.0211 42.277C46.9629 41.5454 45.6702 41.3092 44.3803 41.6108L44.3789 41.6111C44.0526 41.6878 43.7209 41.8013 43.394 41.9491C43.2284 42.02 43.0698 42.1011 42.917 42.1933C42.8492 42.2287 42.7836 42.2665 42.7184 42.3061L42.6658 42.3393C40.7928 43.5197 40.4002 45.1631 40.3331 46.0383C40.3079 46.3633 40.3173 46.6722 40.3522 46.9623C31.4008 54.9851 28.6262 65.3661 28.418 66.1872C28.0045 67.6261 28.4198 69.1908 29.5008 70.2346C30.4797 71.1798 31.8512 71.5491 33.1362 71.247C33.2262 71.2259 33.3172 71.2013 33.4091 71.1733C33.5403 71.1377 33.9625 71.032 34.8328 70.8275C34.8838 70.8155 34.935 70.8034 34.9874 70.7911C34.0298 72.4445 33.7498 74.1276 34.1558 75.8282C37.2718 88.8216 41.6908 97.9937 47.6671 103.872C55.2382 111.32 65.3717 113.616 77.786 110.699L77.9904 110.65C82.5521 109.559 86.569 107.965 89.9288 105.911L89.9564 105.894L89.9885 105.875C97.2655 101.402 101.723 94.6454 103.241 85.7884C104.448 78.7441 103.833 70.2566 101.36 59.8417L101.345 59.7777C100.923 58.0111 99.5703 55.6512 95.5065 54.3394C94.5507 54.0305 93.4666 53.7839 92.2594 53.6015L94.476 45.6026L101.952 54.2384C102.954 55.396 104.462 55.8363 105.838 55.513C106.445 55.3703 107.025 55.0807 107.525 54.6374L107.643 54.5322L107.81 54.3849L107.965 54.2472L108.08 54.1443L108.206 54.0325L108.331 53.9208L108.457 53.809L108.56 53.7169L108.715 53.5791L108.842 53.4654C109.618 52.7782 110.099 51.8062 110.174 50.7594C110.254 49.6799 109.902 48.6083 109.196 47.7922L99.1449 36.1823Z" fill="white"/>
<path d="M38.0001 74.9086C43.1602 96.423 53.0399 112.484 77.0577 106.742C101.072 100.999 102.622 82.2028 97.4972 60.6821L38.0001 74.9086Z" fill="#B04732"/>
<path d="M69.9693 84.4461C72.2981 99.098 72.5494 105.613 72.5615 107.586C73.4887 107.462 74.4415 107.299 75.4182 107.102C75.0042 99.2747 69.9693 84.4461 69.9693 84.4461Z" fill="#A13F32"/>
<path d="M87.3583 94.1491C87.442 99.4452 87.1895 101.886 86.946 103.009C87.595 102.645 88.213 102.266 88.8054 101.871C88.6419 97.7281 87.3583 94.1491 87.3583 94.1491Z" fill="#A13F32"/>
<path d="M95.6135 78.125C96.9861 86.2253 96.4031 91.9764 96.015 94.3877C96.7121 93.2243 97.3057 92.0044 97.8008 90.7305C97.6392 85.0768 95.6135 78.125 95.6135 78.125Z" fill="#A13F32"/>
<path d="M97.4969 60.6821C98.5302 65.0035 86.049 71.6923 69.6189 75.622C53.19 79.5498 39.0328 79.2301 37.9998 74.9086C36.966 70.5856 49.4472 63.8966 65.8777 59.9687C82.3078 56.0391 96.4634 56.3588 97.4969 60.6821Z" fill="#E9EDED"/>
<path d="M68.8076 73.9133C55.6631 77.0029 44.439 76.8549 43.6514 73.5574C42.8563 70.228 52.9979 64.9484 66.3075 61.7652C66.4338 61.7356 66.5617 61.7055 66.688 61.6758C79.8325 58.5862 91.058 58.7336 91.846 62.0326C92.6412 65.3622 82.4977 70.6404 69.1896 73.8235C69.0618 73.8535 68.934 73.8836 68.8076 73.9133Z" fill="#CACECF"/>
<path d="M96.18 38.8187L96.1734 38.8107C96.1734 38.8107 96.0152 38.6432 95.7771 38.3928C95.5167 38.1557 95.1631 37.8389 94.7071 37.6058C94.2687 37.3607 93.7324 37.2111 93.3051 37.2083C92.8828 37.1851 92.5954 37.2785 92.5969 37.2651C92.5969 37.2651 92.5285 37.2843 92.4092 37.3223C92.2876 37.3589 92.1158 37.4104 91.9329 37.5164C91.5482 37.7018 91.1285 38.0681 90.8375 38.4767C90.525 38.8823 90.341 39.3205 90.2067 39.6456C90.0997 39.9739 90.029 40.1922 90.029 40.1922L90.0255 40.2042C90.0255 40.2042 88.244 46.6319 84.6847 59.4787C84.3859 60.5616 84.0742 61.6846 83.7476 62.8593C83.1489 65.0218 82.5045 67.3485 81.8199 69.8198C82.5441 69.5204 83.2392 69.2183 83.9001 68.9133C84.4907 66.7831 85.0493 64.7669 85.5728 62.8786C85.8873 61.7406 86.1895 60.6505 86.4802 59.6002C89.9686 47.007 91.7165 40.6982 91.7165 40.6982L91.7203 40.6877C91.7203 40.6877 91.7723 40.5303 91.8495 40.2929C91.9424 40.0744 92.0675 39.7758 92.2417 39.5593C92.5763 39.0662 92.9977 39.0235 92.9889 39.0063C92.9887 39.0256 93.3882 38.8834 93.9019 39.1866C94.1525 39.3084 94.3933 39.5226 94.572 39.682C94.7428 39.8628 94.8568 39.9828 94.8568 39.9828L94.8649 39.9905C94.8649 39.9905 98.2138 43.8613 104.915 51.6022C104.991 51.5345 105.028 51.5016 105.028 51.5016L105.342 51.2214L105.465 51.1137L105.708 50.8949L105.832 50.7854L105.946 50.6843L106.086 50.5595L106.228 50.4342L106.233 50.4297C99.5308 42.6891 96.18 38.8187 96.18 38.8187Z" fill="#EF5656"/>
<path d="M58.1273 69.4489L55.7086 64.9693L46.2997 47.5506L45.4348 48.0266L54.7777 65.3266L57.097 69.6201L60.279 75.5133C60.6232 75.4662 60.9712 75.4151 61.3222 75.3633L58.1273 69.4489Z" fill="#EEB66D"/>
<path fill-rule="evenodd" clip-rule="evenodd" d="M46.6299 48.3066L46.3315 48.1849C46.2968 48.1722 46.2425 48.1431 46.1786 48.108C46.1686 48.1861 46.1668 48.2399 46.1583 48.2838L46.095 48.6018C45.5197 47.5373 43.3019 46.6786 44.7702 45.7531C44.8078 45.7296 44.8434 45.7196 44.8832 45.7135C44.9046 45.6829 44.9374 45.654 44.9799 45.6393C46.5446 44.9006 46.0562 47.2421 46.6299 48.3066Z" fill="#76B13C"/>
<path fill-rule="evenodd" clip-rule="evenodd" d="M32.3114 67.1924L32.2466 67.2272C32.2466 67.2272 35.1263 55.5863 45.3793 48.0281C45.5288 47.8868 45.7026 47.7635 45.9018 47.6652C46.0899 47.5548 46.2886 47.4758 46.485 47.4217C57.3119 43.2694 67.4858 46.3518 69.2039 46.9346L69.3626 46.9958L69.7073 47.1258C69.3515 47.8125 65.7792 50.1905 62.0146 54.5515C60.3362 54.651 45.5357 62.5106 42.4451 65.1926C37.3103 64.992 36.2896 64.6516 32.341 67.2919C32.3138 67.3111 32.3152 67.2286 32.3114 67.1924Z" fill="#B0DB2D"/>
<path fill-rule="evenodd" clip-rule="evenodd" d="M45.787 47.7437C45.865 47.6851 45.8315 47.7045 45.9268 47.6578C45.9805 47.6225 46.0404 47.594 46.0989 47.5591C46.2277 47.5001 46.3567 47.455 46.485 47.4217C58.3612 42.8681 69.4541 47.0195 69.4541 47.0195L69.3665 46.9854L69.7134 47.1117C69.4116 47.7712 65.8148 50.153 62.0215 54.5468C56.2083 50.2135 49.2149 46.9236 45.787 47.7437Z" fill="#76B13C"/>
<path fill-rule="evenodd" clip-rule="evenodd" d="M32.2533 67.2224C32.3023 67.0255 35.2179 55.5245 45.3841 48.0338C45.423 47.9907 45.454 47.9607 45.4888 47.9334C45.5432 47.8883 45.5973 47.8481 45.6573 47.8065C45.6901 47.7908 45.7256 47.7665 45.7725 47.7439L45.7861 47.7538C43.1052 50.0799 41.9928 57.7549 42.4627 65.2192C41.6205 65.0913 32.53 67.212 32.2167 67.3356L32.2533 67.2224Z" fill="#76B13C"/>
<path d="M48.9481 58.9044L48.9521 58.8667L48.9481 58.9044Z" fill="#6EB939"/>
</g>
<defs>
<clipPath id="clip0_528_610">
<rect width="120.348" height="122.393" fill="white" transform="translate(0 27.5372) rotate(-13.2272)"/>
</clipPath>
</defs>
</svg>
