<svg xmlns="http://www.w3.org/2000/svg" xmlns:xlink="http://www.w3.org/1999/xlink" width="2048" zoomAndPan="magnify" viewBox="0 0 1536 1535.999932" height="2048" preserveAspectRatio="xMidYMid meet" version="1.0"><defs><clipPath id="id1"><path d="M 272 529 L 1247 529 L 1247 1447 L 272 1447 Z M 272 529 " clip-rule="nonzero"/></clipPath><clipPath id="id2"><path d="M 210.402344 675.703125 L 1190.636719 457.386719 L 1382.214844 1317.558594 L 401.980469 1535.878906 Z M 210.402344 675.703125 " clip-rule="nonzero"/></clipPath><clipPath id="id3"><path d="M 210.402344 675.703125 L 1190.636719 457.386719 L 1382.214844 1317.558594 L 401.980469 1535.878906 Z M 210.402344 675.703125 " clip-rule="nonzero"/></clipPath><clipPath id="id4"><path d="M 210.402344 675.703125 L 1190.636719 457.386719 L 1382.214844 1317.558594 L 401.980469 1535.878906 Z M 210.402344 675.703125 " clip-rule="nonzero"/></clipPath><clipPath id="id5"><path d="M 269 527 L 1249 527 L 1249 1450 L 269 1450 Z M 269 527 " clip-rule="nonzero"/></clipPath><clipPath id="id6"><path d="M 210.402344 675.703125 L 1190.636719 457.386719 L 1382.214844 1317.558594 L 401.980469 1535.878906 Z M 210.402344 675.703125 " clip-rule="nonzero"/></clipPath><clipPath id="id7"><path d="M 210.402344 675.703125 L 1190.636719 457.386719 L 1382.214844 1317.558594 L 401.980469 1535.878906 Z M 210.402344 675.703125 " clip-rule="nonzero"/></clipPath><clipPath id="id8"><path d="M 210.402344 675.703125 L 1190.636719 457.386719 L 1382.214844 1317.558594 L 401.980469 1535.878906 Z M 210.402344 675.703125 " clip-rule="nonzero"/></clipPath><clipPath id="id9"><path d="M 386 851 L 1120 851 L 1120 1400 L 386 1400 Z M 386 851 " clip-rule="nonzero"/></clipPath><clipPath id="id10"><path d="M 210.402344 675.703125 L 1190.636719 457.386719 L 1382.214844 1317.558594 L 401.980469 1535.878906 Z M 210.402344 675.703125 " clip-rule="nonzero"/></clipPath><clipPath id="id11"><path d="M 210.402344 675.703125 L 1190.636719 457.386719 L 1382.214844 1317.558594 L 401.980469 1535.878906 Z M 210.402344 675.703125 " clip-rule="nonzero"/></clipPath><clipPath id="id12"><path d="M 210.402344 675.703125 L 1190.636719 457.386719 L 1382.214844 1317.558594 L 401.980469 1535.878906 Z M 210.402344 675.703125 " clip-rule="nonzero"/></clipPath><clipPath id="id13"><path d="M 763 1126 L 824 1126 L 824 1397 L 763 1397 Z M 763 1126 " clip-rule="nonzero"/></clipPath><clipPath id="id14"><path d="M 210.402344 675.703125 L 1190.636719 457.386719 L 1382.214844 1317.558594 L 401.980469 1535.878906 Z M 210.402344 675.703125 " clip-rule="nonzero"/></clipPath><clipPath id="id15"><path d="M 210.402344 675.703125 L 1190.636719 457.386719 L 1382.214844 1317.558594 L 401.980469 1535.878906 Z M 210.402344 675.703125 " clip-rule="nonzero"/></clipPath><clipPath id="id16"><path d="M 210.402344 675.703125 L 1190.636719 457.386719 L 1382.214844 1317.558594 L 401.980469 1535.878906 Z M 210.402344 675.703125 " clip-rule="nonzero"/></clipPath><clipPath id="id17"><path d="M 961 1241 L 984 1241 L 984 1345 L 961 1345 Z M 961 1241 " clip-rule="nonzero"/></clipPath><clipPath id="id18"><path d="M 210.402344 675.703125 L 1190.636719 457.386719 L 1382.214844 1317.558594 L 401.980469 1535.878906 Z M 210.402344 675.703125 " clip-rule="nonzero"/></clipPath><clipPath id="id19"><path d="M 210.402344 675.703125 L 1190.636719 457.386719 L 1382.214844 1317.558594 L 401.980469 1535.878906 Z M 210.402344 675.703125 " clip-rule="nonzero"/></clipPath><clipPath id="id20"><path d="M 210.402344 675.703125 L 1190.636719 457.386719 L 1382.214844 1317.558594 L 401.980469 1535.878906 Z M 210.402344 675.703125 " clip-rule="nonzero"/></clipPath><clipPath id="id21"><path d="M 1068 1054 L 1093 1054 L 1093 1245 L 1068 1245 Z M 1068 1054 " clip-rule="nonzero"/></clipPath><clipPath id="id22"><path d="M 210.402344 675.703125 L 1190.636719 457.386719 L 1382.214844 1317.558594 L 401.980469 1535.878906 Z M 210.402344 675.703125 " clip-rule="nonzero"/></clipPath><clipPath id="id23"><path d="M 210.402344 675.703125 L 1190.636719 457.386719 L 1382.214844 1317.558594 L 401.980469 1535.878906 Z M 210.402344 675.703125 " clip-rule="nonzero"/></clipPath><clipPath id="id24"><path d="M 210.402344 675.703125 L 1190.636719 457.386719 L 1382.214844 1317.558594 L 401.980469 1535.878906 Z M 210.402344 675.703125 " clip-rule="nonzero"/></clipPath><clipPath id="id25"><path d="M 385 809 L 1095 809 L 1095 1054 L 385 1054 Z M 385 809 " clip-rule="nonzero"/></clipPath><clipPath id="id26"><path d="M 210.402344 675.703125 L 1190.636719 457.386719 L 1382.214844 1317.558594 L 401.980469 1535.878906 Z M 210.402344 675.703125 " clip-rule="nonzero"/></clipPath><clipPath id="id27"><path d="M 210.402344 675.703125 L 1190.636719 457.386719 L 1382.214844 1317.558594 L 401.980469 1535.878906 Z M 210.402344 675.703125 " clip-rule="nonzero"/></clipPath><clipPath id="id28"><path d="M 210.402344 675.703125 L 1190.636719 457.386719 L 1382.214844 1317.558594 L 401.980469 1535.878906 Z M 210.402344 675.703125 " clip-rule="nonzero"/></clipPath><clipPath id="id29"><path d="M 453 835 L 1028 835 L 1028 1028 L 453 1028 Z M 453 835 " clip-rule="nonzero"/></clipPath><clipPath id="id30"><path d="M 210.402344 675.703125 L 1190.636719 457.386719 L 1382.214844 1317.558594 L 401.980469 1535.878906 Z M 210.402344 675.703125 " clip-rule="nonzero"/></clipPath><clipPath id="id31"><path d="M 210.402344 675.703125 L 1190.636719 457.386719 L 1382.214844 1317.558594 L 401.980469 1535.878906 Z M 210.402344 675.703125 " clip-rule="nonzero"/></clipPath><clipPath id="id32"><path d="M 210.402344 675.703125 L 1190.636719 457.386719 L 1382.214844 1317.558594 L 401.980469 1535.878906 Z M 210.402344 675.703125 " clip-rule="nonzero"/></clipPath><clipPath id="id33"><path d="M 906 576 L 1200 576 L 1200 957 L 906 957 Z M 906 576 " clip-rule="nonzero"/></clipPath><clipPath id="id34"><path d="M 210.402344 675.703125 L 1190.636719 457.386719 L 1382.214844 1317.558594 L 401.980469 1535.878906 Z M 210.402344 675.703125 " clip-rule="nonzero"/></clipPath><clipPath id="id35"><path d="M 210.402344 675.703125 L 1190.636719 457.386719 L 1382.214844 1317.558594 L 401.980469 1535.878906 Z M 210.402344 675.703125 " clip-rule="nonzero"/></clipPath><clipPath id="id36"><path d="M 210.402344 675.703125 L 1190.636719 457.386719 L 1382.214844 1317.558594 L 401.980469 1535.878906 Z M 210.402344 675.703125 " clip-rule="nonzero"/></clipPath><clipPath id="id37"><path d="M 479 693 L 663 693 L 663 1021 L 479 1021 Z M 479 693 " clip-rule="nonzero"/></clipPath><clipPath id="id38"><path d="M 210.402344 675.703125 L 1190.636719 457.386719 L 1382.214844 1317.558594 L 401.980469 1535.878906 Z M 210.402344 675.703125 " clip-rule="nonzero"/></clipPath><clipPath id="id39"><path d="M 210.402344 675.703125 L 1190.636719 457.386719 L 1382.214844 1317.558594 L 401.980469 1535.878906 Z M 210.402344 675.703125 " clip-rule="nonzero"/></clipPath><clipPath id="id40"><path d="M 210.402344 675.703125 L 1190.636719 457.386719 L 1382.214844 1317.558594 L 401.980469 1535.878906 Z M 210.402344 675.703125 " clip-rule="nonzero"/></clipPath><clipPath id="id41"><path d="M 465 669 L 494 669 L 494 706 L 465 706 Z M 465 669 " clip-rule="nonzero"/></clipPath><clipPath id="id42"><path d="M 210.402344 675.703125 L 1190.636719 457.386719 L 1382.214844 1317.558594 L 401.980469 1535.878906 Z M 210.402344 675.703125 " clip-rule="nonzero"/></clipPath><clipPath id="id43"><path d="M 210.402344 675.703125 L 1190.636719 457.386719 L 1382.214844 1317.558594 L 401.980469 1535.878906 Z M 210.402344 675.703125 " clip-rule="nonzero"/></clipPath><clipPath id="id44"><path d="M 210.402344 675.703125 L 1190.636719 457.386719 L 1382.214844 1317.558594 L 401.980469 1535.878906 Z M 210.402344 675.703125 " clip-rule="nonzero"/></clipPath><clipPath id="id45"><path d="M 319 667 L 767 667 L 767 923 L 319 923 Z M 319 667 " clip-rule="nonzero"/></clipPath><clipPath id="id46"><path d="M 210.402344 675.703125 L 1190.636719 457.386719 L 1382.214844 1317.558594 L 401.980469 1535.878906 Z M 210.402344 675.703125 " clip-rule="nonzero"/></clipPath><clipPath id="id47"><path d="M 210.402344 675.703125 L 1190.636719 457.386719 L 1382.214844 1317.558594 L 401.980469 1535.878906 Z M 210.402344 675.703125 " clip-rule="nonzero"/></clipPath><clipPath id="id48"><path d="M 210.402344 675.703125 L 1190.636719 457.386719 L 1382.214844 1317.558594 L 401.980469 1535.878906 Z M 210.402344 675.703125 " clip-rule="nonzero"/></clipPath><clipPath id="id49"><path d="M 483 667 L 768 667 L 768 777 L 483 777 Z M 483 667 " clip-rule="nonzero"/></clipPath><clipPath id="id50"><path d="M 210.402344 675.703125 L 1190.636719 457.386719 L 1382.214844 1317.558594 L 401.980469 1535.878906 Z M 210.402344 675.703125 " clip-rule="nonzero"/></clipPath><clipPath id="id51"><path d="M 210.402344 675.703125 L 1190.636719 457.386719 L 1382.214844 1317.558594 L 401.980469 1535.878906 Z M 210.402344 675.703125 " clip-rule="nonzero"/></clipPath><clipPath id="id52"><path d="M 210.402344 675.703125 L 1190.636719 457.386719 L 1382.214844 1317.558594 L 401.980469 1535.878906 Z M 210.402344 675.703125 " clip-rule="nonzero"/></clipPath><clipPath id="id53"><path d="M 319 695 L 484 695 L 484 923 L 319 923 Z M 319 695 " clip-rule="nonzero"/></clipPath><clipPath id="id54"><path d="M 210.402344 675.703125 L 1190.636719 457.386719 L 1382.214844 1317.558594 L 401.980469 1535.878906 Z M 210.402344 675.703125 " clip-rule="nonzero"/></clipPath><clipPath id="id55"><path d="M 210.402344 675.703125 L 1190.636719 457.386719 L 1382.214844 1317.558594 L 401.980469 1535.878906 Z M 210.402344 675.703125 " clip-rule="nonzero"/></clipPath><clipPath id="id56"><path d="M 210.402344 675.703125 L 1190.636719 457.386719 L 1382.214844 1317.558594 L 401.980469 1535.878906 Z M 210.402344 675.703125 " clip-rule="nonzero"/></clipPath><clipPath id="id57"><path d="M 518 825 L 519 825 L 519 826 L 518 826 Z M 518 825 " clip-rule="nonzero"/></clipPath><clipPath id="id58"><path d="M 210.402344 675.703125 L 1190.636719 457.386719 L 1382.214844 1317.558594 L 401.980469 1535.878906 Z M 210.402344 675.703125 " clip-rule="nonzero"/></clipPath><clipPath id="id59"><path d="M 210.402344 675.703125 L 1190.636719 457.386719 L 1382.214844 1317.558594 L 401.980469 1535.878906 Z M 210.402344 675.703125 " clip-rule="nonzero"/></clipPath><clipPath id="id60"><path d="M 210.402344 675.703125 L 1190.636719 457.386719 L 1382.214844 1317.558594 L 401.980469 1535.878906 Z M 210.402344 675.703125 " clip-rule="nonzero"/></clipPath><clipPath id="id61"><path d="M 525 169 L 878 169 L 878 520 L 525 520 Z M 525 169 " clip-rule="nonzero"/></clipPath><clipPath id="id62"><path d="M 492.550781 204.089844 L 836.703125 106.398438 L 940.335938 471.472656 L 596.183594 569.167969 Z M 492.550781 204.089844 " clip-rule="nonzero"/></clipPath><clipPath id="id63"><path d="M 492.550781 204.089844 L 836.703125 106.398438 L 940.335938 471.472656 L 596.183594 569.167969 Z M 492.550781 204.089844 " clip-rule="nonzero"/></clipPath><clipPath id="id64"><path d="M 492.550781 204.089844 L 836.703125 106.398438 L 940.335938 471.472656 L 596.183594 569.167969 Z M 492.550781 204.089844 " clip-rule="nonzero"/></clipPath><clipPath id="id65"><path d="M 233 455 L 368 455 L 368 592 L 233 592 Z M 233 455 " clip-rule="nonzero"/></clipPath><clipPath id="id66"><path d="M 210.40625 502.464844 L 330.164062 426.632812 L 410.8125 553.996094 L 291.050781 629.828125 Z M 210.40625 502.464844 " clip-rule="nonzero"/></clipPath><clipPath id="id67"><path d="M 210.40625 502.464844 L 330.164062 426.632812 L 410.8125 553.996094 L 291.050781 629.828125 Z M 210.40625 502.464844 " clip-rule="nonzero"/></clipPath><clipPath id="id68"><path d="M 210.40625 502.464844 L 330.164062 426.632812 L 410.8125 553.996094 L 291.050781 629.828125 Z M 210.40625 502.464844 " clip-rule="nonzero"/></clipPath><clipPath id="id69"><path d="M 1162 370 L 1320 370 L 1320 531 L 1162 531 Z M 1162 370 " clip-rule="nonzero"/></clipPath><clipPath id="id70"><path d="M 1208.203125 337.898438 L 1346.816406 430.144531 L 1249.171875 576.871094 L 1110.558594 484.628906 Z M 1208.203125 337.898438 " clip-rule="nonzero"/></clipPath><clipPath id="id71"><path d="M 1208.203125 337.898438 L 1346.816406 430.144531 L 1249.171875 576.871094 L 1110.558594 484.628906 Z M 1208.203125 337.898438 " clip-rule="nonzero"/></clipPath><clipPath id="id72"><path d="M 1208.203125 337.898438 L 1346.816406 430.144531 L 1249.171875 576.871094 L 1110.558594 484.628906 Z M 1208.203125 337.898438 " clip-rule="nonzero"/></clipPath></defs><g clip-path="url(#id1)"><g clip-path="url(#id2)"><g clip-path="url(#id3)"><g clip-path="url(#id4)"><path fill="#ffffff" d="M 1117.761719 565.484375 C 1117.359375 565.03125 1116.976562 564.570312 1116.558594 564.136719 L 1116.292969 563.859375 L 1111.664062 558.90625 C 1110.824219 558.007812 1109.9375 557.136719 1109.019531 556.308594 C 1105.039062 552.671875 1097.699219 545.996094 1087.171875 540.425781 C 1075.652344 534.097656 1062.605469 530.421875 1050.179688 530.054688 C 1042.824219 529.707031 1036.867188 530.507812 1033.738281 531.035156 C 1032.445312 531.210938 1031.128906 531.445312 1029.808594 531.742188 L 1029.789062 531.746094 C 1028.789062 531.96875 1027.8125 532.222656 1026.84375 532.496094 C 1026.386719 532.632812 1025.625 532.839844 1024.605469 533.144531 C 1022.3125 533.804688 1017.027344 535.339844 1010.859375 538.550781 C 999.871094 543.960938 989.621094 552.527344 981.789062 562.84375 C 974.394531 572.257812 970.421875 581.378906 968.261719 586.324219 C 967.789062 587.40625 967.363281 588.53125 966.957031 589.65625 C 965.59375 593.558594 964.695312 596.179688 964.695312 596.179688 L 964.585938 596.523438 C 964.390625 597.074219 964.214844 597.636719 964.039062 598.203125 L 914.710938 764.15625 C 857.019531 767.234375 792.488281 776.242188 725.53125 790.609375 C 741.347656 774.632812 755.945312 762 766.523438 753.152344 C 770.792969 749.578125 774.707031 746.359375 778.210938 743.476562 C 783.605469 739.050781 788.25 735.238281 792.074219 731.855469 C 792.449219 731.507812 792.777344 731.210938 793.089844 730.933594 C 794.308594 729.839844 795.472656 728.753906 796.457031 727.785156 C 797.183594 727.078125 797.761719 726.480469 798.324219 725.886719 C 799.136719 725.066406 800.277344 723.875 801.542969 722.394531 C 802.640625 721.097656 803.480469 719.972656 804.121094 719.0625 C 805.265625 717.550781 806.746094 715.4375 808.207031 712.730469 C 808.6875 711.855469 809.128906 710.96875 809.546875 710.066406 C 815.054688 698.242188 815.390625 684.679688 810.464844 672.589844 C 805.507812 660.429688 795.671875 650.894531 783.359375 646.320312 L 779.273438 644.8125 C 778.433594 644.492188 777.582031 644.214844 776.734375 643.933594 C 769.339844 641.398438 752.035156 635.890625 727.480469 630.910156 L 726.691406 630.75 C 725.984375 630.605469 725.277344 630.460938 724.53125 630.308594 C 723.847656 630.179688 723.082031 630.03125 722.316406 629.882812 L 721.359375 629.703125 L 721.027344 629.644531 C 719.421875 629.347656 717.8125 629.03125 716.152344 628.742188 L 713.96875 628.367188 L 713.03125 628.199219 C 711.101562 627.878906 709.191406 627.554688 707.222656 627.222656 L 704.855469 626.871094 L 704.019531 626.738281 C 702.003906 626.4375 699.945312 626.125 697.832031 625.828125 L 694.796875 625.414062 L 694.507812 625.386719 C 692.398438 625.085938 690.179688 624.8125 687.925781 624.542969 C 686.824219 624.414062 685.710938 624.285156 684.59375 624.160156 C 682.320312 623.898438 679.976562 623.648438 677.597656 623.410156 C 676.484375 623.300781 675.375 623.195312 674.242188 623.089844 C 671.792969 622.867188 669.289062 622.652344 666.734375 622.472656 L 666.214844 622.417969 L 663.449219 622.210938 C 660.800781 622.03125 658.066406 621.871094 655.292969 621.71875 L 654.476562 621.675781 L 652.371094 621.5625 C 649.28125 621.425781 646.15625 621.296875 642.988281 621.214844 L 642.496094 621.191406 L 640.851562 621.144531 C 628.460938 620.847656 615.972656 621.039062 603.734375 621.683594 C 603.179688 621.714844 602.570312 621.757812 601.976562 621.792969 L 601.554688 621.832031 C 598.109375 622.035156 594.597656 622.257812 591.039062 622.542969 C 590.15625 622.625 589.277344 622.710938 588.410156 622.789062 L 587.382812 622.886719 C 584.328125 623.15625 581.207031 623.457031 578.058594 623.800781 C 576.976562 623.910156 575.914062 624.035156 574.839844 624.179688 L 573.722656 624.296875 C 570.726562 624.664062 567.789062 625.039062 564.808594 625.457031 C 563.3125 625.660156 561.824219 625.878906 560.339844 626.117188 L 560.027344 626.148438 C 557.105469 626.59375 554.210938 627.066406 551.300781 627.566406 C 549.601562 627.851562 547.90625 628.152344 546.210938 628.457031 C 543.363281 628.976562 540.46875 629.546875 537.5625 630.136719 L 537.257812 630.207031 C 535.605469 630.535156 533.976562 630.878906 532.328125 631.230469 L 530.59375 631.613281 C 528.25 632.136719 525.914062 632.675781 523.5625 633.238281 L 522.585938 633.472656 C 521.140625 633.8125 519.714844 634.152344 518.296875 634.523438 C 517.335938 634.753906 516.378906 635.007812 515.402344 635.261719 C 514.007812 634.050781 512.488281 632.871094 510.886719 631.746094 C 498.476562 623.105469 483.203125 620.222656 467.863281 623.617188 L 467.847656 623.625 C 463.96875 624.488281 460.015625 625.78125 456.117188 627.472656 C 454.140625 628.289062 452.246094 629.21875 450.421875 630.28125 C 449.609375 630.6875 448.828125 631.125 448.046875 631.578125 L 447.417969 631.960938 C 425.011719 645.5625 420.066406 664.710938 419.113281 674.921875 C 418.757812 678.714844 418.808594 682.324219 419.171875 685.714844 C 311.664062 778.523438 276.917969 899.457031 274.304688 909.023438 C 269.144531 925.78125 273.785156 944.085938 286.40625 956.378906 C 297.832031 967.507812 314.019531 971.949219 329.296875 968.546875 C 330.371094 968.308594 331.453125 968.03125 332.546875 967.710938 C 334.105469 967.308594 339.128906 966.113281 349.476562 963.808594 C 350.085938 963.671875 350.695312 963.539062 351.320312 963.398438 C 339.671875 982.613281 336.050781 1002.234375 340.558594 1022.128906 C 375.140625 1174.125 425.855469 1281.632812 495.609375 1350.832031 C 583.984375 1438.507812 703.644531 1466.292969 851.269531 1433.414062 L 853.699219 1432.875 C 907.949219 1420.566406 955.832031 1402.34375 996.015625 1378.683594 L 996.347656 1378.480469 L 996.730469 1378.261719 C 1083.757812 1326.746094 1137.792969 1248.285156 1157.375 1145.023438 C 1172.945312 1062.898438 1167.179688 963.746094 1139.746094 841.917969 L 1139.582031 841.167969 C 1134.902344 820.503906 1119.300781 792.820312 1071.382812 777.117188 C 1060.109375 773.421875 1047.308594 770.4375 1033.039062 768.195312 L 1060.742188 675.019531 L 1147.773438 776.554688 C 1159.4375 790.167969 1177.234375 795.453125 1193.585938 791.808594 C 1200.808594 790.203125 1207.738281 786.875 1213.742188 781.75 L 1215.160156 780.53125 L 1217.164062 778.828125 L 1219.023438 777.234375 L 1220.40625 776.042969 L 1221.921875 774.75 L 1223.414062 773.460938 L 1224.929688 772.167969 L 1226.171875 771.101562 L 1228.03125 769.503906 L 1229.558594 768.191406 C 1238.875 760.242188 1244.742188 748.9375 1245.828125 736.726562 C 1246.964844 724.132812 1242.988281 711.585938 1234.773438 701.992188 L 1117.761719 565.484375 " fill-opacity="1" fill-rule="nonzero"/></g></g></g></g><g clip-path="url(#id5)"><g clip-path="url(#id6)"><g clip-path="url(#id7)"><g clip-path="url(#id8)"><path fill="#e9e9e9" d="M 348.96875 961.519531 L 356.125 959.964844 L 353.316406 964.625 C 342.027344 983.25 338.496094 1002.421875 342.839844 1021.601562 C 377.324219 1173.148438 427.84375 1280.289062 497.265625 1349.167969 C 585.035156 1436.246094 703.957031 1463.824219 850.761719 1431.128906 L 853.191406 1430.585938 C 907.1875 1418.335938 954.847656 1400.199219 994.832031 1376.660156 L 996.726562 1378.246094 L 995.546875 1376.238281 C 1081.949219 1325.105469 1135.625 1247.152344 1155.066406 1144.601562 C 1170.570312 1062.773438 1164.824219 963.953125 1137.460938 842.429688 L 1137.289062 841.660156 C 1132.769531 821.710938 1117.523438 794.699219 1070.636719 779.328125 C 1059.566406 775.699219 1046.789062 772.730469 1032.675781 770.507812 L 1030.027344 770.082031 L 1059.710938 670.21875 L 1149.554688 775.035156 C 1160.28125 787.558594 1176.972656 793.109375 1193.078125 789.523438 C 1200.101562 787.957031 1206.71875 784.664062 1212.222656 779.96875 L 1228.035156 766.410156 C 1236.957031 758.792969 1242.453125 748.171875 1243.511719 736.511719 C 1244.570312 724.589844 1240.75 712.570312 1232.992188 703.511719 L 1115.980469 567.007812 C 1115.605469 566.582031 1115.226562 566.144531 1114.851562 565.738281 L 1109.957031 560.507812 C 1109.144531 559.65625 1108.324219 558.824219 1107.457031 558.042969 C 1103.570312 554.5 1096.347656 547.929688 1086.082031 542.507812 C 1074.898438 536.347656 1062.128906 532.757812 1050.101562 532.398438 C 1044.792969 532.15625 1039.296875 532.480469 1034.140625 533.347656 C 1031.773438 533.667969 1029.589844 534.132812 1027.496094 534.75 L 1025.257812 535.398438 C 1023.019531 536.046875 1017.871094 537.53125 1011.941406 540.636719 C 1001.273438 545.882812 991.230469 554.269531 983.660156 564.25 C 976.441406 573.453125 972.527344 582.410156 970.414062 587.234375 C 969.957031 588.292969 969.550781 589.339844 969.171875 590.417969 L 966.910156 596.941406 C 966.613281 597.796875 966.453125 598.339844 966.289062 598.863281 L 916.488281 766.40625 L 914.839844 766.492188 C 857.574219 769.550781 792.300781 778.683594 726.023438 792.902344 L 718.324219 794.558594 L 723.871094 788.972656 C 740.160156 772.496094 755.167969 759.605469 765.015625 751.351562 C 768.855469 748.132812 772.425781 745.199219 775.660156 742.546875 L 776.722656 741.671875 C 782.191406 737.171875 786.777344 733.429688 790.515625 730.082031 L 791.484375 729.210938 C 792.722656 728.109375 793.855469 727.050781 794.828125 726.101562 C 795.519531 725.421875 796.089844 724.863281 796.621094 724.296875 C 797.425781 723.460938 798.542969 722.3125 799.761719 720.875 C 800.796875 719.632812 801.605469 718.550781 802.222656 717.703125 C 803.757812 715.671875 805.023438 713.683594 806.136719 711.613281 C 806.613281 710.796875 807.019531 709.9375 807.414062 709.078125 C 812.628906 697.882812 812.945312 684.90625 808.296875 673.464844 C 803.59375 661.945312 794.214844 652.851562 782.539062 648.53125 L 778.449219 647.003906 C 777.652344 646.710938 776.859375 646.4375 776.035156 646.191406 C 768.007812 643.417969 751.085938 638.109375 726.996094 633.210938 L 720.933594 632.011719 C 718.992188 631.636719 717.386719 631.339844 715.746094 631.046875 L 712.648438 630.519531 C 710.714844 630.179688 708.804688 629.855469 706.863281 629.554688 L 703.675781 629.066406 C 701.652344 628.746094 699.613281 628.429688 697.507812 628.148438 L 694.46875 627.738281 C 692.09375 627.425781 689.890625 627.144531 687.632812 626.859375 L 684.34375 626.484375 C 682.070312 626.222656 679.730469 625.992188 677.371094 625.75 L 674.054688 625.4375 C 671.597656 625.195312 669.09375 624.984375 666.558594 624.800781 L 663.277344 624.554688 C 660.648438 624.371094 657.929688 624.207031 655.179688 624.070312 L 652.234375 623.902344 C 649.199219 623.753906 646.078125 623.640625 642.925781 623.554688 L 640.792969 623.484375 C 628.457031 623.195312 616.023438 623.375 603.863281 624.019531 L 602.125 624.144531 C 598.253906 624.367188 594.761719 624.601562 591.222656 624.882812 L 587.601562 625.222656 C 584.53125 625.492188 581.445312 625.785156 578.3125 626.128906 L 574 626.636719 C 571.039062 626.996094 568.082031 627.355469 565.132812 627.769531 L 560.683594 628.421875 C 557.472656 628.910156 554.589844 629.367188 551.703125 629.878906 L 546.628906 630.761719 C 543.78125 631.285156 540.925781 631.847656 538.035156 632.433594 L 536.90625 632.667969 C 535.5625 632.949219 534.179688 633.234375 532.820312 633.519531 L 531.085938 633.90625 C 528.777344 634.421875 526.441406 634.960938 524.109375 635.515625 L 523.113281 635.757812 C 521.703125 636.089844 520.277344 636.425781 518.859375 636.796875 L 514.832031 637.828125 L 513.867188 637.027344 C 512.535156 635.863281 511.089844 634.757812 509.535156 633.679688 C 494.652344 623.28125 475.546875 621.644531 457.046875 629.628906 C 455.121094 630.414062 453.3125 631.304688 451.585938 632.308594 C 450.710938 632.765625 449.957031 633.160156 449.230469 633.605469 L 448.632812 633.960938 C 427.082031 647.035156 422.347656 665.367188 421.449219 675.132812 C 421.121094 678.640625 421.148438 682.121094 421.5 685.476562 L 421.621094 686.6875 L 420.695312 687.496094 C 314.632812 779.0625 280.132812 896.542969 276.5625 909.644531 C 271.613281 925.753906 276.015625 942.988281 288.039062 954.699219 C 299.609375 965.96875 316.289062 970.113281 331.875 965.460938 C 333.542969 965.03125 338.566406 963.839844 348.96875 961.519531 Z M 851.777344 1435.703125 C 703.332031 1468.765625 582.929688 1440.765625 493.957031 1352.492188 C 423.882812 1282.972656 372.972656 1175.078125 338.269531 1022.640625 C 334.007812 1003.835938 336.828125 985.085938 346.644531 966.839844 C 338.570312 968.65625 334.511719 969.636719 333.109375 969.988281 C 332.070312 970.292969 330.933594 970.585938 329.789062 970.839844 C 313.542969 974.457031 296.707031 969.691406 284.773438 958.054688 C 271.480469 945.125 266.617188 926.0625 272.066406 908.339844 C 275.65625 895.214844 310.332031 777.09375 416.722656 684.742188 C 416.441406 681.464844 416.476562 678.078125 416.773438 674.691406 C 417.761719 664.0625 422.898438 644.082031 446.203125 629.960938 L 446.648438 629.675781 C 447.675781 629.074219 448.496094 628.628906 449.335938 628.195312 C 451.148438 627.152344 453.144531 626.167969 455.222656 625.308594 C 475.125 616.710938 496.015625 618.53125 512.226562 629.835938 C 513.550781 630.738281 514.800781 631.71875 515.996094 632.691406 L 517.714844 632.25 C 519.152344 631.875 520.59375 631.535156 522.039062 631.195312 L 523.019531 630.957031 C 525.371094 630.394531 527.722656 629.851562 530.066406 629.332031 L 531.816406 628.941406 C 533.214844 628.648438 534.59375 628.359375 535.976562 628.070312 L 536.785156 627.910156 C 540.011719 627.246094 542.925781 626.675781 545.789062 626.148438 L 550.898438 625.253906 C 553.84375 624.75 556.738281 624.273438 559.683594 623.84375 L 564.476562 623.128906 C 567.476562 622.707031 570.4375 622.347656 573.449219 621.976562 L 577.800781 621.476562 C 580.96875 621.125 584.089844 620.824219 587.179688 620.550781 L 590.859375 620.21875 C 594.414062 619.914062 597.964844 619.6875 601.40625 619.484375 L 603.609375 619.347656 C 615.902344 618.691406 628.445312 618.507812 640.914062 618.808594 L 643.082031 618.867188 C 646.234375 618.953125 649.378906 619.078125 652.464844 619.214844 L 655.429688 619.382812 C 658.199219 619.535156 660.957031 619.6875 663.601562 619.867188 L 666.925781 620.125 C 669.464844 620.328125 672.003906 620.53125 674.476562 620.765625 C 675.601562 620.855469 676.71875 620.980469 677.832031 621.089844 C 680.207031 621.308594 682.574219 621.570312 684.863281 621.832031 L 688.195312 622.214844 C 690.464844 622.476562 692.6875 622.769531 694.832031 623.042969 L 698.160156 623.503906 C 700.269531 623.800781 702.347656 624.109375 704.386719 624.421875 L 707.589844 624.910156 C 709.578125 625.238281 711.488281 625.5625 713.4375 625.894531 L 716.554688 626.421875 C 718.234375 626.722656 719.84375 627.039062 721.449219 627.339844 L 727.941406 628.613281 C 752.289062 633.5625 769.433594 638.957031 777.5 641.738281 C 778.308594 641.988281 779.195312 642.277344 780.09375 642.601562 L 784.1875 644.128906 C 797.070312 648.914062 807.449219 658.964844 812.632812 671.710938 C 817.789062 684.332031 817.441406 698.6875 811.679688 711.054688 C 811.25 711.996094 810.765625 712.929688 810.273438 713.84375 C 809.039062 716.128906 807.644531 718.296875 806.011719 720.476562 C 805.367188 721.371094 804.464844 722.546875 803.324219 723.910156 C 802.03125 725.433594 800.84375 726.675781 800.003906 727.539062 C 799.457031 728.109375 798.847656 728.734375 798.109375 729.460938 C 797.085938 730.4375 795.894531 731.566406 794.640625 732.671875 L 793.625 733.59375 C 789.824219 736.988281 785.207031 740.777344 779.84375 745.160156 L 778.640625 746.160156 C 775.421875 748.808594 771.855469 751.742188 768.027344 754.9375 C 759.378906 762.171875 746.785156 773.007812 732.816406 786.679688 C 796.765625 773.300781 857.304688 764.976562 912.933594 761.910156 L 961.792969 597.539062 C 961.980469 596.953125 962.164062 596.351562 962.371094 595.757812 L 964.738281 588.871094 C 965.167969 587.6875 965.609375 586.539062 966.121094 585.394531 C 968.316406 580.347656 972.378906 571.039062 979.949219 561.398438 C 987.9375 550.859375 998.550781 542.003906 1009.808594 536.457031 C 1016.128906 533.15625 1021.59375 531.582031 1023.921875 530.914062 L 1026.207031 530.234375 C 1028.53125 529.550781 1031.023438 529.03125 1033.429688 528.71875 C 1038.832031 527.796875 1044.683594 527.453125 1050.273438 527.707031 C 1063.007812 528.097656 1076.511719 531.882812 1088.292969 538.375 C 1099.070312 544.058594 1106.578125 550.902344 1110.601562 554.566406 C 1111.570312 555.457031 1112.484375 556.359375 1113.371094 557.308594 L 1118.015625 562.257812 C 1118.707031 563.003906 1119.132812 563.472656 1119.539062 563.945312 L 1236.554688 700.46875 C 1245.121094 710.472656 1249.359375 723.765625 1248.183594 736.933594 C 1247.019531 749.820312 1240.949219 761.5625 1231.078125 769.972656 L 1215.246094 783.535156 C 1209.179688 788.710938 1201.851562 792.371094 1194.097656 794.097656 C 1176.296875 798.0625 1157.859375 791.925781 1146 778.097656 L 1061.753906 679.800781 L 1036.054688 766.304688 C 1049.375 768.511719 1061.480469 771.40625 1072.101562 774.875 C 1121.074219 790.925781 1137.0625 819.5 1141.863281 840.640625 L 1142.042969 841.445312 C 1169.539062 963.558594 1175.3125 1063.011719 1159.6875 1145.464844 C 1139.976562 1249.414062 1085.535156 1328.414062 997.925781 1380.265625 L 997.199219 1380.710938 C 956.816406 1404.488281 908.707031 1422.796875 854.226562 1435.15625 L 851.777344 1435.703125 " fill-opacity="1" fill-rule="nonzero"/></g></g></g></g><g clip-path="url(#id9)"><g clip-path="url(#id10)"><g clip-path="url(#id11)"><g clip-path="url(#id12)"><path fill="#b04732" d="M 386.269531 1011.761719 C 443.542969 1263.433594 557.71875 1451.898438 843.347656 1387.15625 C 1128.9375 1322.40625 1150.683594 1103.105469 1093.828125 851.359375 L 386.269531 1011.761719 " fill-opacity="1" fill-rule="nonzero"/></g></g></g></g><g clip-path="url(#id13)"><g clip-path="url(#id14)"><g clip-path="url(#id15)"><g clip-path="url(#id16)"><path fill="#a13f32" d="M 763.367188 1126.171875 C 788.328125 1297.453125 790.136719 1373.53125 789.921875 1396.578125 C 800.929688 1395.214844 812.25 1393.40625 823.859375 1391.195312 C 820.359375 1299.773438 763.367188 1126.171875 763.367188 1126.171875 " fill-opacity="1" fill-rule="nonzero"/></g></g></g></g><g clip-path="url(#id17)"><g clip-path="url(#id18)"><g clip-path="url(#id19)"><g clip-path="url(#id20)"><path fill="#a13f32" d="M 967.664062 1241.117188 C 967.707031 1302.957031 964.273438 1331.429688 961.1875 1344.515625 C 968.941406 1340.332031 976.335938 1335.964844 983.421875 1331.402344 C 982.234375 1283.023438 967.664062 1241.117188 967.664062 1241.117188 " fill-opacity="1" fill-rule="nonzero"/></g></g></g></g><g clip-path="url(#id21)"><g clip-path="url(#id22)"><g clip-path="url(#id23)"><g clip-path="url(#id24)"><path fill="#a13f32" d="M 1068.367188 1054.828125 C 1083.175781 1149.527344 1075.230469 1216.613281 1070.199219 1244.730469 C 1078.667969 1231.214844 1085.921875 1217.027344 1092.015625 1202.203125 C 1091.121094 1136.183594 1068.367188 1054.828125 1068.367188 1054.828125 " fill-opacity="1" fill-rule="nonzero"/></g></g></g></g><g clip-path="url(#id25)"><g clip-path="url(#id26)"><g clip-path="url(#id27)"><g clip-path="url(#id28)"><path fill="#e9eded" d="M 1093.828125 851.359375 C 1105.292969 901.914062 956.199219 978.808594 760.804688 1023.113281 C 565.429688 1067.398438 397.734375 1062.3125 386.269531 1011.761719 C 374.800781 961.1875 523.894531 884.292969 719.292969 840.003906 C 914.683594 795.699219 1082.359375 800.789062 1093.828125 851.359375 " fill-opacity="1" fill-rule="nonzero"/></g></g></g></g><g clip-path="url(#id29)"><g clip-path="url(#id30)"><g clip-path="url(#id31)"><g clip-path="url(#id32)"><path fill="#cacecf" d="M 751.503906 1003.089844 C 595.195312 1037.902344 462.226562 1035.101562 453.484375 996.527344 C 444.660156 957.578125 565.78125 896.910156 724.066406 861.019531 C 725.566406 860.6875 727.085938 860.347656 728.589844 860.011719 C 884.898438 825.199219 1017.882812 827.996094 1026.628906 866.585938 C 1035.453125 905.535156 914.3125 966.191406 756.046875 1002.078125 C 754.527344 1002.414062 753.007812 1002.753906 751.503906 1003.089844 " fill-opacity="1" fill-rule="nonzero"/></g></g></g></g><g clip-path="url(#id33)"><g clip-path="url(#id34)"><g clip-path="url(#id35)"><g clip-path="url(#id36)"><path fill="#ef5656" d="M 1082.15625 595.980469 L 1082.082031 595.886719 C 1082.082031 595.886719 1080.234375 593.914062 1077.457031 590.96875 C 1074.417969 588.175781 1070.285156 584.445312 1064.921875 581.679688 C 1059.773438 578.773438 1053.445312 576.976562 1048.382812 576.902344 C 1043.378906 576.59375 1039.957031 577.652344 1039.980469 577.5 C 1039.980469 577.5 1039.164062 577.71875 1037.742188 578.148438 C 1036.296875 578.5625 1034.25 579.148438 1032.066406 580.367188 C 1027.472656 582.496094 1022.433594 586.734375 1018.914062 591.476562 C 1015.140625 596.183594 1012.878906 601.28125 1011.226562 605.0625 C 1009.902344 608.886719 1009.023438 611.425781 1009.023438 611.425781 L 1008.980469 611.566406 C 1008.980469 611.566406 986.714844 686.441406 942.230469 836.085938 C 938.492188 848.699219 934.597656 861.777344 930.515625 875.464844 C 923.03125 900.652344 914.980469 927.753906 906.421875 956.542969 C 915.058594 953.117188 923.347656 949.65625 931.234375 946.15625 C 938.617188 921.34375 945.597656 897.859375 952.140625 875.863281 C 956.070312 862.605469 959.847656 849.910156 963.480469 837.675781 C 1007.085938 690.984375 1028.929688 617.496094 1028.929688 617.496094 L 1028.976562 617.375 C 1028.976562 617.375 1029.621094 615.542969 1030.578125 612.777344 C 1031.71875 610.234375 1033.253906 606.761719 1035.355469 604.246094 C 1039.410156 598.523438 1044.410156 598.066406 1044.308594 597.863281 C 1044.304688 598.089844 1049.0625 596.46875 1055.097656 600.058594 C 1058.042969 601.5 1060.859375 604.027344 1062.945312 605.90625 C 1064.9375 608.03125 1066.265625 609.445312 1066.265625 609.445312 L 1066.363281 609.535156 C 1066.363281 609.535156 1105.347656 655.046875 1183.359375 746.0625 C 1184.273438 745.277344 1184.714844 744.898438 1184.714844 744.898438 L 1188.492188 741.65625 L 1189.960938 740.410156 L 1192.886719 737.882812 L 1194.367188 736.613281 L 1195.738281 735.445312 L 1197.425781 734 L 1199.128906 732.554688 L 1199.191406 732.5 C 1121.164062 641.488281 1082.15625 595.980469 1082.15625 595.980469 " fill-opacity="1" fill-rule="nonzero"/></g></g></g></g><g clip-path="url(#id37)"><g clip-path="url(#id38)"><g clip-path="url(#id39)"><g clip-path="url(#id40)"><path fill="#eeb66d" d="M 625.746094 949.945312 L 597.894531 897.414062 L 489.542969 693.152344 L 479.207031 698.625 L 586.800781 901.496094 L 613.507812 951.84375 L 650.152344 1020.953125 C 654.242188 1020.4375 658.375 1019.871094 662.542969 1019.300781 L 625.746094 949.945312 " fill-opacity="1" fill-rule="nonzero"/></g></g></g></g><g clip-path="url(#id41)"><g clip-path="url(#id42)"><g clip-path="url(#id43)"><g clip-path="url(#id44)"><path fill="#76b13c" d="M 493.316406 702.011719 L 489.804688 700.558594 C 489.394531 700.40625 488.753906 700.0625 488.003906 699.648438 C 487.871094 700.558594 487.839844 701.183594 487.730469 701.699219 L 486.925781 705.402344 C 480.296875 692.921875 454.175781 682.683594 471.742188 672.015625 C 472.1875 671.75 472.613281 671.636719 473.085938 671.566406 C 473.34375 671.210938 473.738281 670.878906 474.246094 670.710938 C 492.917969 662.234375 486.707031 689.527344 493.316406 702.011719 " fill-opacity="1" fill-rule="evenodd"/></g></g></g></g><g clip-path="url(#id45)"><g clip-path="url(#id46)"><g clip-path="url(#id47)"><g clip-path="url(#id48)"><path fill="#b0db2d" d="M 320.257812 921.128906 L 319.484375 921.527344 C 319.484375 921.527344 355.699219 785.898438 478.550781 698.640625 C 480.34375 697 482.429688 695.582031 484.804688 694.453125 C 487.054688 693.179688 489.421875 692.277344 491.761719 691.664062 C 620.796875 644.222656 740.796875 681.183594 761.050781 688.152344 L 762.917969 688.878906 L 766.980469 690.433594 C 762.640625 698.414062 719.882812 725.835938 674.492188 776.390625 C 654.585938 777.390625 477.792969 867.734375 440.695312 898.753906 C 379.886719 895.917969 367.855469 891.84375 320.589844 922.292969 C 320.265625 922.515625 320.296875 921.554688 320.257812 921.128906 " fill-opacity="1" fill-rule="evenodd"/></g></g></g></g><g clip-path="url(#id49)"><g clip-path="url(#id50)"><g clip-path="url(#id51)"><g clip-path="url(#id52)"><path fill="#76b13c" d="M 483.429688 695.359375 C 484.367188 694.679688 483.964844 694.902344 485.105469 694.367188 C 485.746094 693.960938 486.460938 693.632812 487.160156 693.234375 C 488.695312 692.554688 490.230469 692.042969 491.761719 691.664062 C 633.300781 639.636719 763.996094 689.167969 763.996094 689.167969 L 762.96875 688.757812 L 767.054688 690.265625 C 763.359375 697.9375 720.3125 725.402344 674.570312 776.335938 C 606.472656 725.1875 524.195312 686.109375 483.429688 695.359375 " fill-opacity="1" fill-rule="evenodd"/></g></g></g></g><g clip-path="url(#id53)"><g clip-path="url(#id54)"><g clip-path="url(#id55)"><g clip-path="url(#id56)"><path fill="#76b13c" d="M 319.5625 921.472656 C 320.179688 919.179688 356.796875 785.183594 478.601562 698.703125 C 479.074219 698.203125 479.445312 697.859375 479.863281 697.539062 C 480.515625 697.019531 481.164062 696.558594 481.882812 696.078125 C 482.273438 695.898438 482.699219 695.613281 483.261719 695.359375 L 483.417969 695.472656 C 451.234375 722.375 436.671875 811.875 440.894531 899.0625 C 430.941406 897.492188 322.84375 921.378906 319.109375 922.792969 L 319.5625 921.472656 " fill-opacity="1" fill-rule="evenodd"/></g></g></g></g><g clip-path="url(#id57)"><g clip-path="url(#id58)"><g clip-path="url(#id59)"><g clip-path="url(#id60)"><path fill="#6eb939" d="M 518.878906 825.960938 L 518.929688 825.519531 L 518.878906 825.960938 " fill-opacity="1" fill-rule="nonzero"/></g></g></g></g><g clip-path="url(#id61)"><g clip-path="url(#id62)"><g clip-path="url(#id63)"><g clip-path="url(#id64)"><path fill="#dd2e44" d="M 529.230469 334.65625 C 502.308594 239.828125 623.78125 167.367188 695.386719 265.664062 C 704.667969 144.394531 846.09375 142.226562 873.015625 237.070312 C 902.265625 340.113281 767.460938 519.554688 767.460938 519.554688 C 767.460938 519.554688 558.480469 437.703125 529.230469 334.65625 Z M 529.230469 334.65625 " fill-opacity="1" fill-rule="nonzero"/></g></g></g></g><g clip-path="url(#id65)"><g clip-path="url(#id66)"><g clip-path="url(#id67)"><g clip-path="url(#id68)"><path fill="#dd2e44" d="M 239.101562 548.058594 C 218.152344 514.972656 256.128906 473.746094 294.453125 503.132812 C 284.273438 455.917969 337.78125 439.21875 358.734375 472.304688 C 381.496094 508.257812 350.542969 591.710938 350.542969 591.710938 C 350.542969 591.710938 261.863281 584.007812 239.101562 548.058594 Z M 239.101562 548.058594 " fill-opacity="1" fill-rule="nonzero"/></g></g></g></g><g clip-path="url(#id69)"><g clip-path="url(#id70)"><g clip-path="url(#id71)"><g clip-path="url(#id72)"><path fill="#dd2e44" d="M 1173.164062 390.242188 C 1198.527344 352.128906 1260.871094 373.234375 1247.800781 428.195312 C 1293.453125 394.910156 1336.996094 444.269531 1311.628906 482.386719 C 1284.070312 523.800781 1179.894531 530.234375 1179.894531 530.234375 C 1179.894531 530.234375 1145.605469 431.65625 1173.164062 390.242188 Z M 1173.164062 390.242188 " fill-opacity="1" fill-rule="nonzero"/></g></g></g></g></svg>