<svg width="174" height="168" viewBox="0 0 174 168" fill="none" xmlns="http://www.w3.org/2000/svg">
<path d="M10.6743 160.306C9.47292 160.306 8.43025 160.17 7.54625 159.898C6.66225 159.626 5.92558 159.207 5.33625 158.64C4.76958 158.073 4.33892 157.359 4.04425 156.498C3.77225 155.637 3.63625 154.628 3.63625 153.472L3.63625 140.28C3.63625 139.759 3.68158 139.283 3.77225 138.852C3.86292 138.399 4.12358 138.036 4.55425 137.764C4.98492 137.469 5.71025 137.322 6.73025 137.322C7.72758 137.322 8.44158 137.481 8.87225 137.798C9.30292 138.093 9.56358 138.478 9.65425 138.954C9.74492 139.43 9.79025 139.917 9.79025 140.416L9.79025 153.166C9.79025 153.415 9.80158 153.631 9.82425 153.812C9.86958 153.971 9.92625 154.095 9.99425 154.186C10.0623 154.277 10.1529 154.345 10.2663 154.39C10.3796 154.435 10.5269 154.458 10.7083 154.458C11.2976 154.458 11.8189 154.503 12.2723 154.594C12.7483 154.685 13.1109 154.923 13.3603 155.308C13.6323 155.693 13.7683 156.339 13.7683 157.246C13.7683 158.266 13.6096 158.991 13.2923 159.422C12.9749 159.853 12.5783 160.102 12.1023 160.17C11.6263 160.261 11.1503 160.306 10.6743 160.306ZM2.92225 143.238H6.90025L11.5923 143.068C12.0909 143.068 12.5669 143.113 13.0203 143.204C13.4963 143.295 13.8816 143.555 14.1763 143.986C14.4936 144.417 14.6523 145.153 14.6523 146.196C14.6523 147.148 14.4936 147.839 14.1763 148.27C13.8816 148.701 13.4963 148.973 13.0203 149.086C12.5669 149.199 12.0796 149.256 11.5583 149.256L7.24025 149.154H2.78625C2.01558 149.109 1.48292 148.859 1.18825 148.406C0.893583 147.953 0.74625 147.205 0.74625 146.162C0.74625 145.187 0.927583 144.462 1.29025 143.986C1.65292 143.487 2.19692 143.238 2.92225 143.238ZM19.0624 160.306C18.0424 160.306 17.3171 160.159 16.8864 159.864C16.4558 159.547 16.1951 159.15 16.1044 158.674C16.0364 158.175 16.0024 157.677 16.0024 157.178V146.094C16.0024 145.573 16.0478 145.085 16.1384 144.632C16.2291 144.156 16.4898 143.771 16.9204 143.476C17.3511 143.181 18.0764 143.034 19.0964 143.034C20.0938 143.034 20.7964 143.17 21.2044 143.442C21.6351 143.714 21.8958 144.02 21.9864 144.36C22.0771 144.677 22.1224 144.927 22.1224 145.108L21.5784 144.904C21.5784 144.904 21.6691 144.802 21.8504 144.598C22.0318 144.394 22.2924 144.156 22.6324 143.884C22.9951 143.612 23.4144 143.374 23.8904 143.17C24.3891 142.966 24.9444 142.864 25.5564 142.864C25.7604 142.864 26.0098 142.887 26.3044 142.932C26.6218 142.955 26.9504 143.011 27.2904 143.102C27.6531 143.193 27.9818 143.329 28.2764 143.51C28.5938 143.691 28.8431 143.929 29.0244 144.224C29.2284 144.519 29.3304 144.881 29.3304 145.312C29.3304 146.445 29.0811 147.409 28.5824 148.202C28.1064 148.995 27.4718 149.392 26.6784 149.392C26.2478 149.392 25.9418 149.369 25.7604 149.324C25.5791 149.256 25.4431 149.199 25.3524 149.154C25.2844 149.086 25.1938 149.029 25.0804 148.984C24.9898 148.916 24.8084 148.882 24.5364 148.882C24.1964 148.882 23.8791 148.927 23.5844 149.018C23.3124 149.086 23.0631 149.199 22.8364 149.358C22.6324 149.517 22.4738 149.709 22.3604 149.936C22.2471 150.14 22.1904 150.367 22.1904 150.616V157.246C22.1904 157.745 22.1451 158.232 22.0544 158.708C21.9638 159.184 21.7031 159.569 21.2724 159.864C20.8418 160.159 20.1051 160.306 19.0624 160.306ZM43.4529 160.238C42.4329 160.238 41.6736 160.068 41.1749 159.728C40.6989 159.388 40.4722 159.003 40.4949 158.572H40.9709C40.8576 158.731 40.6309 158.946 40.2909 159.218C39.9736 159.467 39.5429 159.705 38.9989 159.932C38.4549 160.136 37.7862 160.238 36.9929 160.238C35.9729 160.238 34.9869 160.011 34.0349 159.558C33.1056 159.082 32.2669 158.436 31.5189 157.62C30.7936 156.804 30.2156 155.886 29.7849 154.866C29.3542 153.823 29.1389 152.735 29.1389 151.602C29.1389 150.491 29.3542 149.426 29.7849 148.406C30.2156 147.386 30.8049 146.479 31.5529 145.686C32.3009 144.87 33.1396 144.235 34.0689 143.782C34.9982 143.306 35.9729 143.068 36.9929 143.068C37.7636 143.068 38.4096 143.181 38.9309 143.408C39.4749 143.635 39.9056 143.884 40.2229 144.156C40.5629 144.428 40.7896 144.655 40.9029 144.836H40.5289C40.5062 144.269 40.7329 143.827 41.2089 143.51C41.7076 143.193 42.4669 143.034 43.4869 143.034C44.5069 143.034 45.2209 143.193 45.6289 143.51C46.0596 143.805 46.3202 144.19 46.4109 144.666C46.5016 145.142 46.5469 145.629 46.5469 146.128L46.5469 157.178C46.5469 157.677 46.5016 158.164 46.4109 158.64C46.3202 159.116 46.0596 159.501 45.6289 159.796C45.2209 160.091 44.4956 160.238 43.4529 160.238ZM37.8429 154.084C38.2736 154.084 38.6589 153.971 38.9989 153.744C39.3616 153.517 39.6449 153.223 39.8489 152.86C40.0756 152.475 40.1889 152.067 40.1889 151.636C40.1889 151.183 40.0756 150.775 39.8489 150.412C39.6449 150.049 39.3616 149.755 38.9989 149.528C38.6362 149.301 38.2282 149.188 37.7749 149.188C37.3216 149.188 36.9022 149.301 36.5169 149.528C36.1542 149.755 35.8596 150.061 35.6329 150.446C35.4062 150.809 35.2929 151.217 35.2929 151.67C35.2929 152.101 35.4062 152.497 35.6329 152.86C35.8822 153.223 36.1996 153.517 36.5849 153.744C36.9702 153.971 37.3896 154.084 37.8429 154.084ZM56.8486 160.476C56.214 160.476 55.6586 160.351 55.1826 160.102C54.7293 159.853 54.378 159.479 54.1286 158.98L48.1106 147.522C47.612 146.547 47.4533 145.731 47.6346 145.074C47.816 144.417 48.428 143.839 49.4706 143.34C50.536 142.819 51.3746 142.637 51.9866 142.796C52.5986 142.955 53.154 143.601 53.6526 144.734L56.8486 152.01L60.0446 144.734C60.566 143.555 61.1326 142.898 61.7446 142.762C62.3566 142.626 63.184 142.819 64.2266 143.34C65.292 143.861 65.904 144.462 66.0626 145.142C66.2213 145.799 66.0626 146.593 65.5866 147.522L59.5686 158.98C59.3193 159.479 58.968 159.853 58.5146 160.102C58.0613 160.351 57.506 160.476 56.8486 160.476ZM75.4424 160.68C73.7424 160.68 72.3031 160.408 71.1244 159.864C69.9457 159.297 68.9937 158.572 68.2684 157.688C67.5431 156.781 67.0104 155.807 66.6704 154.764C66.3304 153.721 66.1604 152.713 66.1604 151.738C66.1604 149.947 66.5571 148.372 67.3504 147.012C68.1437 145.652 69.2431 144.587 70.6484 143.816C72.0537 143.045 73.6631 142.66 75.4764 142.66C76.8817 142.66 78.0831 142.887 79.0804 143.34C80.0777 143.793 80.8824 144.371 81.4944 145.074C82.1291 145.777 82.5937 146.525 82.8884 147.318C83.1831 148.111 83.3304 148.848 83.3304 149.528C83.3304 150.82 83.0131 151.806 82.3784 152.486C81.7437 153.166 80.9277 153.506 79.9304 153.506H72.6884C72.7791 153.869 72.9604 154.186 73.2324 154.458C73.5271 154.707 73.8897 154.911 74.3204 155.07C74.7511 155.206 75.2157 155.274 75.7144 155.274C76.2131 155.274 76.6551 155.251 77.0404 155.206C77.4257 155.138 77.7544 155.059 78.0264 154.968C78.3211 154.877 78.5817 154.787 78.8084 154.696C79.0577 154.605 79.2731 154.537 79.4544 154.492C79.6584 154.424 79.8511 154.39 80.0324 154.39C80.4404 154.39 80.8144 154.526 81.1544 154.798C81.4944 155.07 81.8004 155.478 82.0724 156.022C82.2311 156.317 82.3444 156.6 82.4124 156.872C82.4804 157.121 82.5144 157.359 82.5144 157.586C82.5144 158.266 82.2311 158.833 81.6644 159.286C81.1204 159.739 80.3271 160.079 79.2844 160.306C78.2417 160.555 76.9611 160.68 75.4424 160.68ZM72.6884 150.31H76.4964C76.8137 150.31 77.0404 150.242 77.1764 150.106C77.3351 149.97 77.4144 149.766 77.4144 149.494C77.4144 149.199 77.3237 148.95 77.1424 148.746C76.9837 148.542 76.7571 148.395 76.4624 148.304C76.1677 148.191 75.8164 148.134 75.4084 148.134C74.8644 148.134 74.3884 148.247 73.9804 148.474C73.5724 148.678 73.2551 148.95 73.0284 149.29C72.8244 149.607 72.7111 149.947 72.6884 150.31ZM92.0737 160.306C91.031 160.306 90.113 160.261 89.3197 160.17C88.549 160.079 87.8917 159.898 87.3477 159.626C86.8037 159.354 86.3617 158.969 86.0217 158.47C85.6817 157.949 85.4324 157.28 85.2737 156.464C85.115 155.625 85.0357 154.583 85.0357 153.336V138.274C85.0357 137.753 85.081 137.265 85.1717 136.812C85.2624 136.336 85.523 135.951 85.9537 135.656C86.3844 135.339 87.1097 135.18 88.1297 135.18C89.1497 135.18 89.8637 135.339 90.2717 135.656C90.7024 135.951 90.963 136.336 91.0537 136.812C91.1444 137.288 91.1897 137.787 91.1897 138.308V152.962C91.1897 153.302 91.1897 153.574 91.1897 153.778C91.2124 153.959 91.2464 154.095 91.2917 154.186C91.3597 154.277 91.4504 154.333 91.5637 154.356C91.6997 154.356 91.881 154.356 92.1077 154.356C92.4024 154.356 92.7084 154.401 93.0257 154.492C93.3657 154.56 93.649 154.798 93.8757 155.206C94.125 155.591 94.2497 156.271 94.2497 157.246C94.2497 158.266 94.125 158.991 93.8757 159.422C93.649 159.853 93.3657 160.102 93.0257 160.17C92.6857 160.261 92.3684 160.306 92.0737 160.306Z" fill="#B0DB2D"/>
<path d="M98.4163 160.272C97.419 160.272 96.705 160.125 96.2743 159.83C95.8436 159.535 95.583 159.15 95.4923 158.674C95.4016 158.198 95.3563 157.688 95.3563 157.144V139.6C95.3563 139.101 95.4016 138.625 95.4923 138.172C95.583 137.696 95.8436 137.311 96.2743 137.016C96.705 136.699 97.4416 136.54 98.4843 136.54C99.187 136.54 99.697 136.585 100.014 136.676C100.354 136.767 100.592 136.88 100.728 137.016C100.887 137.152 101.046 137.311 101.204 137.492L108.242 146.536H108.038L115.042 137.526C115.269 137.277 115.473 137.084 115.654 136.948C115.858 136.812 116.119 136.71 116.436 136.642C116.776 136.574 117.252 136.54 117.864 136.54C118.884 136.54 119.61 136.699 120.04 137.016C120.471 137.311 120.732 137.696 120.822 138.172C120.913 138.648 120.958 139.147 120.958 139.668V157.212C120.958 157.711 120.913 158.198 120.822 158.674C120.732 159.15 120.471 159.535 120.04 159.83C119.61 160.125 118.873 160.272 117.83 160.272C116.81 160.272 116.085 160.125 115.654 159.83C115.224 159.513 114.963 159.116 114.872 158.64C114.782 158.141 114.736 157.643 114.736 157.144V147.488L110.758 152.894C110.668 153.007 110.532 153.177 110.35 153.404C110.169 153.631 109.908 153.835 109.568 154.016C109.228 154.197 108.752 154.288 108.14 154.288C107.528 154.288 107.041 154.197 106.678 154.016C106.338 153.835 106.078 153.642 105.896 153.438C105.715 153.211 105.579 153.03 105.488 152.894L101.544 147.522V157.212C101.544 157.711 101.499 158.198 101.408 158.674C101.318 159.15 101.057 159.535 100.626 159.83C100.196 160.125 99.459 160.272 98.4163 160.272ZM136.72 160.238C135.7 160.238 134.941 160.068 134.442 159.728C133.966 159.388 133.74 159.003 133.762 158.572H134.238C134.125 158.731 133.898 158.946 133.558 159.218C133.241 159.467 132.81 159.705 132.266 159.932C131.722 160.136 131.054 160.238 130.26 160.238C129.24 160.238 128.254 160.011 127.302 159.558C126.373 159.082 125.534 158.436 124.786 157.62C124.061 156.804 123.483 155.886 123.052 154.866C122.622 153.823 122.406 152.735 122.406 151.602C122.406 150.491 122.622 149.426 123.052 148.406C123.483 147.386 124.072 146.479 124.82 145.686C125.568 144.87 126.407 144.235 127.336 143.782C128.266 143.306 129.24 143.068 130.26 143.068C131.031 143.068 131.677 143.181 132.198 143.408C132.742 143.635 133.173 143.884 133.49 144.156C133.83 144.428 134.057 144.655 134.17 144.836H133.796C133.774 144.269 134 143.827 134.476 143.51C134.975 143.193 135.734 143.034 136.754 143.034C137.774 143.034 138.488 143.193 138.896 143.51C139.327 143.805 139.588 144.19 139.678 144.666C139.769 145.142 139.814 145.629 139.814 146.128V157.178C139.814 157.677 139.769 158.164 139.678 158.64C139.588 159.116 139.327 159.501 138.896 159.796C138.488 160.091 137.763 160.238 136.72 160.238ZM131.11 154.084C131.541 154.084 131.926 153.971 132.266 153.744C132.629 153.517 132.912 153.223 133.116 152.86C133.343 152.475 133.456 152.067 133.456 151.636C133.456 151.183 133.343 150.775 133.116 150.412C132.912 150.049 132.629 149.755 132.266 149.528C131.904 149.301 131.496 149.188 131.042 149.188C130.589 149.188 130.17 149.301 129.784 149.528C129.422 149.755 129.127 150.061 128.9 150.446C128.674 150.809 128.56 151.217 128.56 151.67C128.56 152.101 128.674 152.497 128.9 152.86C129.15 153.223 129.467 153.517 129.852 153.744C130.238 153.971 130.657 154.084 131.11 154.084ZM151.09 160.306C149.889 160.306 148.846 160.17 147.962 159.898C147.078 159.626 146.342 159.207 145.752 158.64C145.186 158.073 144.755 157.359 144.46 156.498C144.188 155.637 144.052 154.628 144.052 153.472V140.28C144.052 139.759 144.098 139.283 144.188 138.852C144.279 138.399 144.54 138.036 144.97 137.764C145.401 137.469 146.126 137.322 147.146 137.322C148.144 137.322 148.858 137.481 149.288 137.798C149.719 138.093 149.98 138.478 150.07 138.954C150.161 139.43 150.206 139.917 150.206 140.416V153.166C150.206 153.415 150.218 153.631 150.24 153.812C150.286 153.971 150.342 154.095 150.41 154.186C150.478 154.277 150.569 154.345 150.682 154.39C150.796 154.435 150.943 154.458 151.124 154.458C151.714 154.458 152.235 154.503 152.688 154.594C153.164 154.685 153.527 154.923 153.776 155.308C154.048 155.693 154.184 156.339 154.184 157.246C154.184 158.266 154.026 158.991 153.708 159.422C153.391 159.853 152.994 160.102 152.518 160.17C152.042 160.261 151.566 160.306 151.09 160.306ZM143.338 143.238H147.316L152.008 143.068C152.507 143.068 152.983 143.113 153.436 143.204C153.912 143.295 154.298 143.555 154.592 143.986C154.91 144.417 155.068 145.153 155.068 146.196C155.068 147.148 154.91 147.839 154.592 148.27C154.298 148.701 153.912 148.973 153.436 149.086C152.983 149.199 152.496 149.256 151.974 149.256L147.656 149.154H143.202C142.432 149.109 141.899 148.859 141.604 148.406C141.31 147.953 141.162 147.205 141.162 146.162C141.162 145.187 141.344 144.462 141.706 143.986C142.069 143.487 142.613 143.238 143.338 143.238ZM165.19 160.68C163.49 160.68 162.051 160.408 160.872 159.864C159.694 159.297 158.742 158.572 158.016 157.688C157.291 156.781 156.758 155.807 156.418 154.764C156.078 153.721 155.908 152.713 155.908 151.738C155.908 149.947 156.305 148.372 157.098 147.012C157.892 145.652 158.991 144.587 160.396 143.816C161.802 143.045 163.411 142.66 165.224 142.66C166.63 142.66 167.831 142.887 168.828 143.34C169.826 143.793 170.63 144.371 171.242 145.074C171.877 145.777 172.342 146.525 172.636 147.318C172.931 148.111 173.078 148.848 173.078 149.528C173.078 150.82 172.761 151.806 172.126 152.486C171.492 153.166 170.676 153.506 169.678 153.506H162.436C162.527 153.869 162.708 154.186 162.98 154.458C163.275 154.707 163.638 154.911 164.068 155.07C164.499 155.206 164.964 155.274 165.462 155.274C165.961 155.274 166.403 155.251 166.788 155.206C167.174 155.138 167.502 155.059 167.774 154.968C168.069 154.877 168.33 154.787 168.556 154.696C168.806 154.605 169.021 154.537 169.202 154.492C169.406 154.424 169.599 154.39 169.78 154.39C170.188 154.39 170.562 154.526 170.902 154.798C171.242 155.07 171.548 155.478 171.82 156.022C171.979 156.317 172.092 156.6 172.16 156.872C172.228 157.121 172.262 157.359 172.262 157.586C172.262 158.266 171.979 158.833 171.412 159.286C170.868 159.739 170.075 160.079 169.032 160.306C167.99 160.555 166.709 160.68 165.19 160.68ZM162.436 150.31H166.244C166.562 150.31 166.788 150.242 166.924 150.106C167.083 149.97 167.162 149.766 167.162 149.494C167.162 149.199 167.072 148.95 166.89 148.746C166.732 148.542 166.505 148.395 166.21 148.304C165.916 148.191 165.564 148.134 165.156 148.134C164.612 148.134 164.136 148.247 163.728 148.474C163.32 148.678 163.003 148.95 162.776 149.29C162.572 149.607 162.459 149.947 162.436 150.31Z" fill="#F5C518"/>
<g clip-path="url(#clip0_548_661)">
<path d="M111.145 46.1823C111.11 46.1437 111.077 46.1048 111.042 46.068L111.019 46.0444L110.622 45.6233C110.55 45.5468 110.474 45.4726 110.395 45.4025C110.055 45.094 109.427 44.5273 108.531 44.0574C107.551 43.5236 106.445 43.2176 105.396 43.195C104.775 43.1699 104.273 43.2427 104.01 43.2902C103.901 43.3059 103.791 43.3271 103.679 43.3533L103.678 43.3536C103.594 43.3734 103.512 43.3959 103.43 43.4198C103.392 43.4323 103.328 43.4506 103.242 43.4771C103.049 43.5352 102.605 43.6703 102.089 43.9496C101.169 44.4207 100.315 45.1614 99.6678 46.0506C99.0561 46.8617 98.7326 47.6456 98.5568 48.0706C98.5183 48.1635 98.4838 48.2604 98.4511 48.3567C98.3413 48.692 98.2688 48.9172 98.2688 48.9172L98.26 48.9465C98.244 48.9937 98.23 49.0424 98.2159 49.0908L94.2693 63.3377C89.4051 63.641 83.9713 64.4572 78.34 65.7341C79.6541 64.3548 80.8691 63.2628 81.7505 62.498C82.106 62.1887 82.4323 61.9102 82.7243 61.6609C83.1735 61.2781 83.5607 60.9486 83.879 60.656C83.91 60.6263 83.9373 60.6004 83.9631 60.5768C84.0647 60.4819 84.1615 60.3882 84.2434 60.3043C84.3036 60.2435 84.3518 60.1919 84.3986 60.1406C84.4659 60.0698 84.5605 59.967 84.6654 59.8391C84.7564 59.7275 84.8258 59.6306 84.8786 59.552C84.9731 59.4217 85.0955 59.2398 85.2152 59.007C85.2544 58.9316 85.2906 58.8553 85.3246 58.7783C85.7741 57.7613 85.785 56.5997 85.3535 55.5677C84.9193 54.5298 84.0772 53.7199 83.0323 53.3369L82.6853 53.2103C82.614 53.1836 82.5418 53.1603 82.47 53.1369C81.8426 52.9246 80.3754 52.465 78.2968 52.0554L78.2302 52.0423C78.1702 52.0305 78.1105 52.0187 78.0473 52.0063C77.9894 51.9956 77.9246 51.9834 77.8598 51.9714L77.7787 51.9566L77.7505 51.9517C77.6149 51.9273 77.4786 51.9012 77.3383 51.8779L77.1534 51.8471L77.0741 51.8335C76.9111 51.8072 76.7493 51.781 76.5829 51.7539L76.3825 51.7252L76.3117 51.7144C76.1412 51.6899 75.9671 51.6649 75.7885 51.6407L75.5317 51.6077L75.5075 51.6051C75.329 51.5812 75.1414 51.5591 74.9506 51.5377C74.8579 51.5272 74.7634 51.5171 74.6693 51.5073C74.4773 51.4862 74.279 51.4667 74.078 51.4477C73.9839 51.4391 73.8898 51.4309 73.7945 51.4226C73.5873 51.4051 73.3756 51.3887 73.1599 51.3751L73.1161 51.3707L72.8825 51.3546C72.659 51.3413 72.4276 51.3295 72.1936 51.3183L72.1247 51.3153L71.9466 51.307C71.6859 51.2973 71.422 51.2886 71.1546 51.2837L71.113 51.2823L70.9743 51.2794C69.9284 51.2624 68.8748 51.2875 67.843 51.351C67.796 51.354 67.7447 51.3581 67.6946 51.3616L67.659 51.3651C67.3688 51.3851 67.0726 51.4064 66.7727 51.4334C66.6984 51.441 66.6242 51.4488 66.5514 51.4563L66.4646 51.4655C66.2073 51.4905 65.9441 51.5185 65.679 51.5501C65.5877 51.5604 65.4982 51.5715 65.4079 51.5847L65.3137 51.5957C65.0615 51.6291 64.8142 51.6629 64.5628 51.7012C64.4373 51.7195 64.3117 51.7391 64.1866 51.7605L64.1606 51.7635C63.9147 51.8037 63.6707 51.8463 63.4259 51.8911C63.2829 51.9167 63.1403 51.9438 62.9976 51.9706C62.758 52.0174 62.5146 52.0682 62.2698 52.1209L62.2445 52.1269C62.1056 52.1563 61.9684 52.187 61.8295 52.218L61.6839 52.2522C61.4869 52.2985 61.2903 52.3463 61.0929 52.3959L61.0104 52.4169C60.8892 52.447 60.7692 52.4768 60.6499 52.5097C60.5692 52.5302 60.4889 52.5523 60.4068 52.5748C60.2878 52.4723 60.1579 52.3721 60.0211 52.277C58.9629 51.5454 57.6702 51.3092 56.3803 51.6108L56.3789 51.6111C56.0526 51.6878 55.7209 51.8013 55.394 51.9491C55.2284 52.02 55.0698 52.1011 54.917 52.1933C54.8492 52.2287 54.7836 52.2665 54.7184 52.3061L54.6658 52.3393C52.7928 53.5197 52.4002 55.1631 52.3331 56.0383C52.3079 56.3633 52.3173 56.6722 52.3522 56.9623C43.4008 64.9851 40.6262 75.3661 40.418 76.1872C40.0045 77.6261 40.4198 79.1908 41.5008 80.2346C42.4797 81.1798 43.8512 81.5491 45.1362 81.247C45.2262 81.2259 45.3172 81.2013 45.4091 81.1733C45.5403 81.1377 45.9625 81.032 46.8328 80.8275C46.8838 80.8155 46.935 80.8034 46.9874 80.7911C46.0298 82.4445 45.7498 84.1276 46.1558 85.8281C49.2718 98.8217 53.6908 107.994 59.6671 113.872C67.2382 121.32 77.3717 123.617 89.786 120.699L89.9904 120.65C94.5521 119.559 98.569 117.965 101.929 115.911L101.956 115.894L101.989 115.875C109.265 111.402 113.723 104.645 115.241 95.7884C116.448 88.7441 115.833 80.2566 113.36 69.8417L113.345 69.7777C112.923 68.0111 111.57 65.6512 107.506 64.3394C106.551 64.0305 105.467 63.7839 104.259 63.6015L106.476 55.6026L113.952 64.2384C114.954 65.396 116.462 65.8363 117.838 65.513C118.445 65.3703 119.025 65.0807 119.525 64.6374L119.643 64.5322L119.81 64.3849L119.965 64.2472L120.08 64.1443L120.206 64.0325L120.331 63.9208L120.457 63.809L120.56 63.7169L120.715 63.5791L120.842 63.4654C121.618 62.7782 122.099 61.8062 122.174 60.7594C122.254 59.6799 121.902 58.6083 121.196 57.7922L111.145 46.1823Z" fill="white"/>
<path d="M50.0001 84.9086C55.1602 106.423 65.0399 122.484 89.0577 116.742C113.072 110.999 114.622 92.2028 109.497 70.6821L50.0001 84.9086Z" fill="#B04732"/>
<path d="M81.9693 94.4461C84.2981 109.098 84.5494 115.613 84.5615 117.586C85.4887 117.462 86.4415 117.299 87.4182 117.102C87.0042 109.275 81.9693 94.4461 81.9693 94.4461Z" fill="#A13F32"/>
<path d="M99.3583 104.149C99.442 109.445 99.1895 111.886 98.946 113.009C99.595 112.645 100.213 112.266 100.805 111.871C100.642 107.728 99.3583 104.149 99.3583 104.149Z" fill="#A13F32"/>
<path d="M107.613 88.125C108.986 96.2253 108.403 101.976 108.015 104.388C108.712 103.224 109.306 102.004 109.801 100.731C109.639 95.0768 107.613 88.125 107.613 88.125Z" fill="#A13F32"/>
<path d="M109.497 70.6821C110.53 75.0035 98.049 81.6923 81.6189 85.622C65.19 89.5498 51.0328 89.2301 49.9998 84.9086C48.966 80.5856 61.4472 73.8966 77.8777 69.9687C94.3078 66.0391 108.463 66.3588 109.497 70.6821Z" fill="#E9EDED"/>
<path d="M80.8076 83.9133C67.6631 87.0029 56.439 86.8549 55.6514 83.5574C54.8563 80.228 64.9979 74.9484 78.3075 71.7652C78.4338 71.7356 78.5617 71.7055 78.688 71.6758C91.8325 68.5862 103.058 68.7336 103.846 72.0326C104.641 75.3622 94.4977 80.6404 81.1896 83.8235C81.0618 83.8535 80.934 83.8836 80.8076 83.9133Z" fill="#CACECF"/>
<path d="M108.18 48.8187L108.173 48.8107C108.173 48.8107 108.015 48.6432 107.777 48.3928C107.517 48.1557 107.163 47.8389 106.707 47.6058C106.269 47.3607 105.732 47.2111 105.305 47.2083C104.883 47.1851 104.595 47.2785 104.597 47.2651C104.597 47.2651 104.529 47.2843 104.409 47.3223C104.288 47.3589 104.116 47.4104 103.933 47.5164C103.548 47.7018 103.128 48.0681 102.837 48.4767C102.525 48.8823 102.341 49.3205 102.207 49.6456C102.1 49.9739 102.029 50.1922 102.029 50.1922L102.026 50.2042C102.026 50.2042 100.244 56.6319 96.6847 69.4787C96.3859 70.5616 96.0742 71.6846 95.7476 72.8593C95.1489 75.0218 94.5045 77.3485 93.8199 79.8198C94.5441 79.5204 95.2392 79.2183 95.9001 78.9133C96.4907 76.7831 97.0493 74.7669 97.5728 72.8786C97.8873 71.7406 98.1895 70.6505 98.4802 69.6002C101.969 57.007 103.716 50.6982 103.716 50.6982L103.72 50.6877C103.72 50.6877 103.772 50.5303 103.849 50.2929C103.942 50.0744 104.067 49.7758 104.242 49.5593C104.576 49.0662 104.998 49.0235 104.989 49.0063C104.989 49.0256 105.388 48.8834 105.902 49.1866C106.152 49.3084 106.393 49.5226 106.572 49.682C106.743 49.8628 106.857 49.9828 106.857 49.9828L106.865 49.9905C106.865 49.9905 110.214 53.8613 116.915 61.6022C116.991 61.5345 117.028 61.5016 117.028 61.5016L117.342 61.2214L117.465 61.1137L117.708 60.8949L117.832 60.7854L117.946 60.6843L118.086 60.5595L118.228 60.4342L118.233 60.4297C111.531 52.6891 108.18 48.8187 108.18 48.8187Z" fill="#EF5656"/>
<path d="M70.1273 79.4489L67.7086 74.9693L58.2997 57.5506L57.4348 58.0266L66.7777 75.3266L69.097 79.6201L72.279 85.5133C72.6232 85.4662 72.9712 85.4151 73.3222 85.3633L70.1273 79.4489Z" fill="#EEB66D"/>
<path fill-rule="evenodd" clip-rule="evenodd" d="M58.6299 58.3066L58.3315 58.1849C58.2968 58.1722 58.2425 58.1431 58.1786 58.108C58.1686 58.1861 58.1668 58.2399 58.1583 58.2838L58.095 58.6018C57.5197 57.5373 55.3019 56.6786 56.7702 55.7531C56.8078 55.7296 56.8434 55.7196 56.8832 55.7135C56.9046 55.6829 56.9374 55.654 56.9799 55.6393C58.5446 54.9006 58.0562 57.2421 58.6299 58.3066Z" fill="#76B13C"/>
<path fill-rule="evenodd" clip-rule="evenodd" d="M44.3114 77.1924L44.2466 77.2272C44.2466 77.2272 47.1263 65.5863 57.3793 58.0281C57.5288 57.8868 57.7026 57.7635 57.9018 57.6652C58.0899 57.5548 58.2886 57.4758 58.485 57.4217C69.3119 53.2694 79.4858 56.3518 81.2039 56.9346L81.3626 56.9958L81.7073 57.1258C81.3515 57.8125 77.7792 60.1905 74.0146 64.5515C72.3362 64.651 57.5357 72.5106 54.4451 75.1926C49.3103 74.992 48.2896 74.6516 44.341 77.2919C44.3138 77.3111 44.3152 77.2286 44.3114 77.1924Z" fill="#B0DB2D"/>
<path fill-rule="evenodd" clip-rule="evenodd" d="M57.787 57.7437C57.865 57.6851 57.8315 57.7045 57.9268 57.6578C57.9805 57.6225 58.0404 57.594 58.0989 57.5591C58.2277 57.5001 58.3567 57.455 58.485 57.4217C70.3612 52.8681 81.4541 57.0195 81.4541 57.0195L81.3665 56.9854L81.7134 57.1117C81.4116 57.7712 77.8148 60.153 74.0215 64.5468C68.2083 60.2135 61.2149 56.9236 57.787 57.7437Z" fill="#76B13C"/>
<path fill-rule="evenodd" clip-rule="evenodd" d="M44.2533 77.2224C44.3023 77.0255 47.2179 65.5245 57.3841 58.0338C57.423 57.9907 57.454 57.9607 57.4888 57.9334C57.5432 57.8883 57.5973 57.8481 57.6573 57.8065C57.6901 57.7908 57.7256 57.7665 57.7725 57.7439L57.7861 57.7538C55.1052 60.0799 53.9928 67.7549 54.4627 75.2192C53.6205 75.0913 44.53 77.212 44.2167 77.3356L44.2533 77.2224Z" fill="#76B13C"/>
<path d="M60.9481 68.9044L60.9521 68.8667L60.9481 68.9044Z" fill="#6EB939"/>
</g>
<path d="M142.488 38.4607C144.716 33.3454 139.271 29.4867 135.012 32.7715C136.559 27.621 131.01 23.9129 127.028 27.821C123.416 31.3667 127.496 43.692 127.496 43.692C127.496 43.692 140.466 43.1016 142.488 38.4607Z" fill="#FF5D5D"/>
<path d="M93.2275 7.58223C88.9531 -1.80919 76.9121 0.900779 76.1583 10.818C70.9933 2.31876 59.0304 5.3582 59.4753 15.6669C59.8788 25.0198 81.8693 34.6606 81.8693 34.6606C81.8693 34.6606 97.1053 16.1029 93.2275 7.58223Z" fill="#FF5E5E"/>
<path d="M39.6084 31.6286C34.983 28.0913 29.7108 32.6428 31.9735 37.7793C27.1421 34.9229 21.9964 39.6176 24.9598 44.6301C27.6483 49.1778 41.1577 48.1271 41.1577 48.1271C41.1577 48.1271 43.8048 34.8381 39.6084 31.6286Z" fill="#FF5D5D"/>
<defs>
<clipPath id="clip0_548_661">
<rect width="120.348" height="122.393" fill="white" transform="translate(12 37.5372) rotate(-13.2272)"/>
</clipPath>
</defs>
</svg>
